<?xml version="1.0" encoding="utf-8"?>
<!-- Generator: Adobe Illustrator 16.0.3, SVG Export Plug-In . SVG Version: 6.00 Build 0)  -->
<!DOCTYPE svg PUBLIC "-//W3C//DTD SVG 1.1//EN" "http://www.w3.org/Graphics/SVG/1.1/DTD/svg11.dtd">
<svg version="1.1" id="Layer_1" xmlns="http://www.w3.org/2000/svg" xmlns:xlink="http://www.w3.org/1999/xlink" x="0px" y="0px"
	 width="60px" height="60px" viewBox="0 0 60 60" enable-background="new 0 0 60 60" xml:space="preserve">
<g>
	<path fill="#48647C" d="M31.728,15.277c-2.021,1.411-2.932,4.544-2.727,9.39c-4.242,9.089-7.074,13.639-8.485,13.639
		c-1.416,0-2.121,0.707-2.121,2.118c0,0.813,0.099,1.517,0.302,2.124H18.09c-1.21,0-3.232,1.416-6.06,4.243
		c-2.628,2.624-4.445,3.937-5.455,3.937c-0.606,0-1.264-0.248-1.97-0.759c-0.708-0.499-1.263-0.758-1.667-0.758
		c-1.618,0-2.225-0.197-1.816-0.604c0.604-1.01,2.319-3.639,5.151-7.881c2.017-2.62,2.925-5.653,2.727-9.088
		c1.412-0.199,2.622-0.501,3.636-0.912c-1.82-1.005-2.93-2.52-3.333-4.544c-0.406-2.015-0.81-3.331-1.213-3.941
		c1.009-1.614,2.524-3.634,4.546-6.059c2.018-2.425,4.644-5.148,7.878-8.183c0.606,0,1.463,0.154,2.574,0.456
		c1.109,0.301,1.97,0.456,2.577,0.456C26.88,8.911,28.897,11.035,31.728,15.277z M59,15.277c-2.021,1.411-2.931,4.544-2.728,9.39
		c-4.243,9.089-7.074,13.639-8.484,13.639c-1.416,0-2.122,0.707-2.122,2.118c0,0.813,0.1,1.517,0.305,2.124h-0.605
		c-1.214,0-3.235,1.416-6.062,4.243c-2.628,2.624-4.447,3.937-5.454,3.937c-0.605,0-1.265-0.248-1.97-0.759
		c-0.71-0.499-1.265-0.758-1.668-0.758c-1.618,0-2.225-0.197-1.816-0.604c0.606-1.01,2.319-3.639,5.15-7.881
		c2.019-2.62,2.926-5.653,2.728-9.088c1.411-0.199,2.625-0.501,3.636-0.912c-1.815-1.005-2.93-2.52-3.334-4.544
		c-0.405-2.015-0.81-3.331-1.21-3.941c1.008-1.614,2.523-3.634,4.544-6.059c2.018-2.425,4.647-5.148,7.88-8.183
		c0.604,0,1.462,0.154,2.575,0.456c1.108,0.301,1.973,0.456,2.575,0.456C54.151,8.911,56.169,11.035,59,15.277z"/>
</g>
</svg>
