<?xml version="1.0" encoding="utf-8"?>
<!-- Generator: Adobe Illustrator 16.0.3, SVG Export Plug-In . SVG Version: 6.00 Build 0)  -->
<!DOCTYPE svg PUBLIC "-//W3C//DTD SVG 1.1//EN" "http://www.w3.org/Graphics/SVG/1.1/DTD/svg11.dtd">
<svg version="1.1" id="Layer_1" xmlns="http://www.w3.org/2000/svg" xmlns:xlink="http://www.w3.org/1999/xlink" x="0px" y="0px"
	 width="60px" height="60px" viewBox="0 0 60 60" enable-background="new 0 0 60 60" xml:space="preserve">
<g>
	<g>
		<g>
			<path fill="#BEC3C7" d="M29.959,23.633c3.432,0,6.223,2.791,6.223,6.222s-2.791,6.222-6.223,6.222s-6.223-2.791-6.223-6.222
				S26.527,23.633,29.959,23.633 M29.959,16.94c-7.131,0-12.914,5.784-12.914,12.914c0,7.134,5.783,12.915,12.914,12.915
				s12.914-5.781,12.914-12.915C42.873,22.725,37.09,16.94,29.959,16.94L29.959,16.94z"/>
		</g>
	</g>
	<g>
		<g>
			<path fill="#BEC3C7" d="M32.154,3.347l0.25,1.339l0.408,2.18l2.166,0.475c2.641,0.578,5.137,1.604,7.418,3.055l1.883,1.193
				l1.826-1.274l1.121-0.781l3.143,3.144l-0.77,1.127l-1.252,1.827l1.191,1.862c1.465,2.291,2.504,4.784,3.096,7.415l0.486,2.17
				l2.189,0.392l1.344,0.239v4.448l-1.34,0.246l-2.18,0.41l-0.475,2.166c-0.578,2.646-1.607,5.143-3.055,7.418l-1.197,1.881
				l1.275,1.832l0.781,1.117l-3.145,3.145l-1.119-0.773l-1.828-1.25l-1.865,1.191c-2.297,1.469-4.787,2.508-7.408,3.096
				l-2.174,0.482l-0.393,2.191l-0.24,1.344h-4.447l-0.256-1.342l-0.408-2.176l-2.164-0.475c-2.637-0.578-5.133-1.605-7.42-3.051
				l-1.883-1.191l-1.824,1.273l-1.117,0.777l-3.143-3.145l0.77-1.131l1.246-1.822l-1.189-1.863
				c-1.463-2.293-2.506-4.785-3.096-7.412l-0.486-2.17l-2.186-0.391l-1.344-0.242v-4.448l1.336-0.251l2.18-0.405l0.475-2.167
				c0.576-2.631,1.605-5.131,3.057-7.428l1.186-1.879l-1.271-1.82l-0.777-1.117l3.143-3.147l1.131,0.771l1.83,1.252l1.865-1.196
				c2.281-1.464,4.771-2.503,7.402-3.095l2.166-0.487l0.396-2.183l0.242-1.346H32.154 M34.932,0H24.908l-0.74,4.098
				C21.109,4.784,18.25,6,15.691,7.64l-3.42-2.339l-7.09,7.091l2.379,3.415c-1.623,2.571-2.822,5.434-3.492,8.499L0,25.067v10.026
				l4.098,0.734c0.686,3.063,1.902,5.918,3.539,8.48L5.301,47.73l7.092,7.086l3.414-2.381c2.57,1.627,5.434,2.822,8.496,3.494
				L25.068,60h10.023l0.736-4.102c3.055-0.684,5.918-1.902,8.48-3.539l3.414,2.34l7.092-7.088l-2.387-3.418
				c1.635-2.568,2.83-5.434,3.5-8.498L60,34.934V24.907l-4.102-0.732c-0.686-3.059-1.9-5.921-3.539-8.482l2.34-3.419l-7.092-7.091
				l-3.418,2.386c-2.564-1.628-5.434-2.827-8.496-3.497L34.932,0L34.932,0z"/>
		</g>
	</g>
</g>
</svg>
