<?xml version="1.0" encoding="utf-8"?>
<!-- Generator: Adobe Illustrator 16.0.3, SVG Export Plug-In . SVG Version: 6.00 Build 0)  -->
<!DOCTYPE svg PUBLIC "-//W3C//DTD SVG 1.1//EN" "http://www.w3.org/Graphics/SVG/1.1/DTD/svg11.dtd">
<svg version="1.1" id="Layer_1" xmlns="http://www.w3.org/2000/svg" xmlns:xlink="http://www.w3.org/1999/xlink" x="0px" y="0px"
	 width="140px" height="77px" viewBox="0 0 140 77" enable-background="new 0 0 140 77" xml:space="preserve">
<g>
	<path fill="#FFFFFF" d="M0,10.766V0h3.571v10.226c0,3.211,1.67,5.576,4.625,5.576c2.955,0,4.548-2.338,4.548-5.576V0h3.597v10.74
		c0,5.113-3.7,7.862-8.145,7.862C3.776,18.602,0,15.853,0,10.766z"/>
	<path fill="#FFFFFF" d="M28.595,18.294l-5.216-7.041h-0.051v7.041h-3.443V0h3.443v11.048h0.051l4.933-6.013h3.957l-5.37,6.064
		l5.935,7.194H28.595z"/>
	<path fill="#FFFFFF" d="M41.8,7.682c-2.107,0-3.083,1.285-3.545,2.03v8.582h-3.469V5.036h3.16v2.056h0.051
		c0.822-1.49,2.107-2.364,3.829-2.364c0.591,0,1.054,0.077,1.542,0.18v3.031C42.905,7.785,42.34,7.682,41.8,7.682z"/>
	<path fill="#FFFFFF" d="M53.258,18.294c0,0,0-1.593,0-1.953h-0.051c-0.976,1.285-2.261,2.261-4.162,2.261
		c-2.826,0-4.882-1.464-4.882-4.162c0-3.88,4.214-4.522,6.346-4.522c1.002,0,2.004,0.257,2.493,0.412V9.738
		c0-1.721-1.311-2.492-3.109-2.492c-1.67,0-3.058,0.565-4.136,1.285V5.961c1.105-0.54,2.8-1.233,4.779-1.233
		c3.545,0,5.755,1.619,5.755,5.447v8.119H53.258z M53.027,12.307c-0.462-0.077-1.259-0.334-2.03-0.334
		c-1.362,0-3.468,0.411-3.468,2.287c0,1.182,1.079,1.876,2.209,1.876c1.079,0,2.646-0.848,3.289-1.619V12.307z"/>
	<path fill="#FFFFFF" d="M59.783,3.006V0h3.443v3.006H59.783z M59.783,18.294V5.036h3.443v13.258H59.783z"/>
	<path fill="#FFFFFF" d="M76.021,18.294v-6.86c0-2.749-0.797-3.854-2.492-3.854c-1.773,0-2.75,1.233-3.29,2.158v8.556h-3.443V5.036
		h3.443V6.86h0.052c0.746-0.976,2.183-2.132,4.187-2.132c3.496,0,4.984,2.209,4.984,5.293v8.273H76.021z"/>
	<path fill="#FFFFFF" d="M83.008,3.006V0h3.443v3.006H83.008z M83.008,18.294V5.036h3.443v13.258H83.008z"/>
	<path fill="#FFFFFF" d="M98.578,18.294c0,0,0-1.593,0-1.953h-0.053c-0.975,1.285-2.26,2.261-4.162,2.261
		c-2.826,0-4.881-1.464-4.881-4.162c0-3.88,4.215-4.522,6.348-4.522c1,0,2.002,0.257,2.492,0.412V9.738
		c0-1.721-1.313-2.492-3.109-2.492c-1.672,0-3.059,0.565-4.139,1.285V5.961c1.107-0.54,2.803-1.233,4.779-1.233
		c3.547,0,5.756,1.619,5.756,5.447v8.119H98.578z M98.346,12.307c-0.461-0.077-1.258-0.334-2.029-0.334
		c-1.361,0-3.469,0.411-3.469,2.287c0,1.182,1.078,1.876,2.211,1.876c1.078,0,2.646-0.848,3.287-1.619V12.307z"/>
	<path fill="#FFFFFF" d="M114.172,18.294v-6.86c0-2.749-0.795-3.854-2.492-3.854c-1.771,0-2.748,1.233-3.289,2.158v8.556h-3.443
		V5.036h3.443V6.86h0.053c0.744-0.976,2.184-2.132,4.188-2.132c3.494,0,4.984,2.209,4.984,5.293v8.273H114.172z"/>
	<path fill="#FFFFFF" d="M0.025,40.815V22.522H6.32c5.986,0,10.201,2.697,10.201,9.044c0,6.526-4.188,9.25-10.304,9.25H0.025z
		 M3.623,25.348v12.641h2.621c4.162,0,6.551-2.03,6.551-6.346c0-4.137-2.569-6.295-6.32-6.295H3.623z"/>
	<path fill="#FFFFFF" d="M19.628,25.528v-3.006h3.443v3.006H19.628z M19.628,40.815V27.558h3.443v13.258H19.628z"/>
	<path fill="#FFFFFF" d="M35.197,40.815c0,0,0-1.593,0-1.953h-0.051c-0.977,1.285-2.261,2.261-4.162,2.261
		c-2.826,0-4.882-1.464-4.882-4.162c0-3.88,4.214-4.522,6.347-4.522c1.002,0,2.004,0.257,2.492,0.411V32.26
		c0-1.721-1.31-2.492-3.109-2.492c-1.67,0-3.058,0.565-4.137,1.285v-2.57c1.105-0.539,2.801-1.233,4.779-1.233
		c3.545,0,5.755,1.618,5.755,5.447v8.119H35.197z M34.966,34.829c-0.463-0.077-1.259-0.334-2.03-0.334
		c-1.362,0-3.469,0.411-3.469,2.286c0,1.183,1.079,1.876,2.209,1.876c1.08,0,2.646-0.848,3.289-1.619V34.829z"/>
	<path fill="#FFFFFF" d="M58.706,40.815v-7.708c0-1.593-0.488-3.006-2.133-3.006c-1.49,0-2.416,1.105-2.98,2.081v8.633H50.15v-7.708
		c0-1.593-0.488-3.006-2.133-3.006c-1.619,0-2.569,1.182-2.98,1.875v8.838h-3.443V27.558h3.16v1.978h0.051
		c0.951-1.413,2.595-2.286,4.445-2.286c1.67,0,3.212,0.745,3.905,2.415h0.077c1.054-1.721,2.698-2.415,4.317-2.415
		c3.52,0,4.599,2.184,4.599,4.959v8.607H58.706z"/>
	<path fill="#FFFFFF" d="M72.449,41.124c-4.29,0-7.425-2.852-7.425-6.912c0-4.316,3.083-6.963,7.425-6.963
		c4.344,0,7.426,2.723,7.426,6.938C79.875,38.272,76.766,41.124,72.449,41.124z M72.449,29.87c-2.363,0-3.828,1.825-3.828,4.317
		c0,2.441,1.336,4.316,3.828,4.316c2.469,0,3.83-1.953,3.83-4.316C76.279,31.72,74.84,29.87,72.449,29.87z"/>
	<path fill="#FFFFFF" d="M92.027,40.815v-6.86c0-2.749-0.797-3.854-2.494-3.854c-1.771,0-2.748,1.233-3.289,2.158v8.556h-3.441
		V27.558h3.441v1.824h0.053c0.744-0.976,2.184-2.132,4.188-2.132c3.494,0,4.984,2.209,4.984,5.293v8.273H92.027z"/>
	<path fill="#FFFFFF" d="M109.523,40.815V39.12h-0.053c-0.693,0.899-2.287,2.004-4.469,2.004c-4.061,0-6.631-3.032-6.631-6.963
		c0-3.751,2.467-6.912,6.477-6.912c1.797,0,3.57,0.745,4.393,1.875h0.051v-6.603h3.443v18.293H109.523z M109.291,31.951
		c-0.668-1.027-1.824-2.004-3.648-2.004c-2.26,0-3.674,1.901-3.674,4.214c0,2.415,1.414,4.265,3.674,4.265
		c1.824,0,2.955-1.053,3.648-1.979V31.951z"/>
	<path fill="#FFFFFF" d="M119.85,41.124c-1.67,0-2.953-0.154-4.213-0.668v-2.775c1.002,0.514,2.621,0.976,3.879,0.976
		c1.055,0,2.209-0.334,2.209-1.516c0-1.08-1.258-1.49-2.646-2.004c-1.67-0.616-3.545-1.387-3.545-3.726
		c0-2.903,2.545-4.162,5.139-4.162c1.311,0,2.596,0.206,3.854,0.668v2.646c-0.795-0.462-2.465-0.848-3.365-0.848
		c-1.156,0-2.287,0.36-2.287,1.31c0,0.874,0.9,1.285,2.004,1.671c1.877,0.642,4.369,1.284,4.369,4.188
		C125.246,40.07,122.496,41.124,119.85,41.124z"/>
</g>
<g>
	<path fill="#D03F4A" d="M67.745,45.498c-0.096,0.096-0.145,0.168-0.145,0.215c-0.095-0.047-0.358-0.072-0.789-0.072
		c-0.024,0-0.036,0.031-0.036,0.09c0,0.061-0.023,0.09-0.072,0.09c-0.023,0-0.048-0.029-0.071-0.09
		c-0.023-0.059-0.144-0.09-0.359-0.09c-0.096,0-0.228,0.042-0.395,0.125c-0.168,0.084-0.3,0.126-0.396,0.126
		c-0.095,0-0.239-0.012-0.431-0.037c-0.192-0.023-0.335-0.036-0.431-0.036c-0.143,0-0.479,0.072-1.005,0.215l-0.826,0.215
		c-0.048,0-0.12-0.011-0.215-0.035c-0.096-0.023-0.167-0.036-0.215-0.036l-0.18,0.179v-0.036c-0.048-0.048-0.107-0.072-0.179-0.072
		c-0.096,0-0.144,0.013-0.144,0.036c0,0.025,0.023,0.061,0.072,0.109l-0.18-0.145c-0.12,0.145-0.305,0.234-0.556,0.27
		c-0.251,0.036-0.497,0.077-0.736,0.125c-0.288,0.096-0.503,0.143-0.646,0.143c-0.049,0-0.121-0.018-0.215-0.053
		c-0.096-0.036-0.168-0.055-0.215-0.055c-0.144,0-0.318,0.042-0.521,0.125c-0.204,0.085-0.389,0.186-0.557,0.306
		c-0.167,0.12-0.305,0.257-0.412,0.413c-0.108,0.156-0.15,0.305-0.126,0.449c-0.048,0.048-0.072,0.084-0.072,0.108l0.072,0.142
		c-0.144,0-0.264,0.138-0.359,0.414c-0.096,0.275-0.12,0.497-0.071,0.664c-0.144,0-0.228,0.084-0.251,0.251v0.432
		c-0.192,0.119-0.407,0.563-0.646,1.328c-0.336,0.91-0.551,1.448-0.646,1.615c0.047,0.024,0.191,0.037,0.431,0.037
		c0.167,0,0.4-0.03,0.7-0.09c0.299-0.061,0.533-0.09,0.7-0.09l0.18-0.18h1.22l0.179-0.18c0.455,0,0.67-0.048,0.646-0.143
		l-0.036-0.108c0.215,0.071,0.574,0.108,1.077,0.108c0.191,0,0.526-0.084,1.005-0.252h0.431l-0.036,0.037
		c0,0.072,0.096,0.084,0.287,0.035c-0.048,0.049-0.102,0.126-0.161,0.233c-0.06,0.108-0.126,0.222-0.198,0.341
		c-0.192,0-0.479,0.061-0.861,0.18c-0.383,0.12-0.635,0.18-0.754,0.18c-0.072,0-0.103-0.013-0.09-0.036
		c0.012-0.024-0.018-0.035-0.09-0.035l-0.323,0.106l0.108,0.109c-0.551,0-0.958,0.048-1.221,0.142l-0.179,0.144
		c-0.239,0-0.419,0.096-0.538,0.287c-0.049-0.023-0.132-0.036-0.251-0.036c-0.287,0-0.587,0.072-0.897,0.215l-0.502,0.252
		c-0.79,0-1.233,0.179-1.328,0.539c-0.049,0.263-0.108,0.527-0.18,0.79c-0.072,0.264-0.144,0.526-0.215,0.789
		c-0.121,0.336-0.233,0.652-0.341,0.951c-0.108,0.3-0.198,0.594-0.27,0.88c0.048,0.024,0.144,0.084,0.287,0.18
		c-0.192,0.527-0.251,1.018-0.179,1.473c-0.024,0.167-0.066,0.328-0.126,0.483c-0.06,0.156-0.138,0.329-0.233,0.521
		c0,0.072-0.251,0.108-0.753,0.108c-0.096,0-0.192-0.084-0.288-0.251c-0.095-0.168-0.143-0.299-0.143-0.396
		c0-0.023,0.024-0.107,0.071-0.251c0.048-0.145,0.096-0.299,0.144-0.467c0.047-0.167,0.095-0.341,0.143-0.521
		c0.048-0.18,0.072-0.341,0.072-0.484c0-0.192-0.013-0.324-0.036-0.396c0.167-0.071,0.299-0.406,0.395-1.006
		c0.096-0.598,0.288-0.98,0.575-1.147l-0.18-0.072c0.287-0.358,0.431-0.826,0.431-1.399c0-0.023-0.013-0.048-0.036-0.072l-0.18,0.18
		c-0.167-0.095-0.466-0.419-0.897-0.969v-0.395c0.335-0.238,0.634-0.359,0.897-0.359c0.191,0,0.395,0.049,0.61,0.144
		c0.072-0.191,0.186-0.527,0.341-1.005c0.155-0.478,0.353-1.1,0.592-1.866c0.502-1.532,0.753-2.405,0.753-2.621
		c-0.071-0.095-0.323-0.311-0.753-0.646c-0.192-0.431-0.287-0.585-0.287-0.466c0-0.527,0.227-0.791,0.682-0.791
		c0.072,0,0.203,0.061,0.395,0.18l0.287,0.18c0.144,0,0.359-0.019,0.646-0.055c0.288-0.036,0.503-0.053,0.646-0.053
		c0.072,0,0.162-0.024,0.269-0.072c0.108-0.048,0.197-0.071,0.27-0.071c0.023,0,0.065,0.011,0.125,0.036
		c0.06,0.024,0.101,0.035,0.125,0.035c0.072,0,0.12-0.029,0.144-0.09c0.023-0.059,0.06-0.09,0.107-0.09s0.126,0.019,0.234,0.054
		c0.107,0.036,0.185,0.055,0.233,0.055s0.084-0.03,0.108-0.09c0.023-0.061,0.072-0.09,0.144-0.09c0.048,0,0.119,0.013,0.215,0.036
		c0.095,0.024,0.167,0.036,0.215,0.036c0.239,0,0.604-0.059,1.095-0.18c0.49-0.119,0.855-0.179,1.095-0.179
		c0.071,0,0.173,0.018,0.305,0.053c0.131,0.037,0.233,0.054,0.305,0.054c0.215,0,0.52-0.029,0.915-0.09
		c0.395-0.059,0.7-0.09,0.916-0.09c0.144,0,1.041-0.036,2.692-0.106c0.048,0.023,0.119,0.106,0.216,0.25L67.745,45.498z"/>
	<path fill="#D03F4A" d="M66.344,53.431c-0.192,0.359-0.426,0.807-0.7,1.347c-0.275,0.537-0.604,1.167-0.987,1.884
		c-0.861,1.628-1.292,2.681-1.292,3.159v0.969c-0.096,0.096-0.12,0.191-0.072,0.288c-0.167-0.024-0.347,0.059-0.538,0.251
		c-0.096-0.071-0.311-0.192-0.646-0.36c0.095-0.405,0.233-0.901,0.413-1.488c0.179-0.587,0.413-1.275,0.7-2.064
		c0.144-0.216,0.323-0.574,0.539-1.077v-0.036c0-0.12,0.12-0.418,0.359-0.897c0.239-0.526,0.347-0.862,0.323-1.005
		c0.239-0.095,0.359-0.204,0.359-0.323c0-0.288-0.12-0.515-0.359-0.682c0.12-0.096,0.269-0.222,0.448-0.377
		c0.18-0.156,0.389-0.342,0.628-0.557c0.288,0,0.49,0.168,0.61,0.504C66.248,53.3,66.32,53.456,66.344,53.431z M68.354,48.693
		c-0.072,0.096-0.191,0.312-0.358,0.646h-0.897c-0.049,0-0.097-0.041-0.145-0.125c-0.048-0.084-0.096-0.174-0.143-0.269
		c-0.049-0.096-0.108-0.239-0.18-0.431c0.358-0.504,0.657-0.754,0.897-0.754C67.72,47.759,67.996,48.071,68.354,48.693z"/>
	<path fill="#D03F4A" d="M74.277,54.113c0-0.023-0.121,0.215-0.359,0.718c-0.023,0.455-0.514,1.759-1.473,3.913
		c-0.861,1.916-1.232,3.063-1.111,3.446c-0.193,0.191-0.383,0.287-0.575,0.287c-0.072,0-0.18-0.03-0.323-0.09
		s-0.251-0.09-0.323-0.09c0.023-0.095,0.108-0.227,0.251-0.395c-0.023-0.048-0.071-0.061-0.143-0.036
		c0.263-0.622,0.573-1.423,0.933-2.405c0.359-0.98,0.766-2.129,1.221-3.446h0.035c0.023-0.023,0.035-0.071,0.035-0.145
		c0.023-0.094,0.023-0.142,0-0.142l-0.107,0.107H72.23c-0.023,0.025-0.049,0.042-0.07,0.054c-0.025,0.013-0.061,0.042-0.109,0.09
		c-0.023,0.024-0.334,0.322-0.934,0.897c0,0.048,0.012,0.096,0.037,0.144c-0.408,0.071-0.767,0.431-1.078,1.077
		c-0.191,0-0.407,0.155-0.646,0.466c-0.24,0.312-0.407,0.467-0.503,0.467c-0.071,0-0.336,0.324-0.79,0.97
		c-0.502,0.766-0.789,1.16-0.861,1.184h-0.359c-0.048,0-0.101-0.042-0.161-0.126c-0.059-0.083-0.119-0.179-0.18-0.286
		c-0.06-0.107-0.131-0.215-0.215-0.323c-0.083-0.107-0.162-0.173-0.234-0.197c0.168-0.145,0.431-0.454,0.79-0.934
		c-0.023-0.239,0.096-0.55,0.359-0.934l-0.036-0.143c0-0.096,0.03-0.24,0.09-0.432c0.06-0.19,0.132-0.382,0.216-0.573
		c0.083-0.192,0.155-0.383,0.215-0.575c0.06-0.191,0.09-0.347,0.09-0.466c0-0.167-0.012-0.299-0.036-0.395
		c-0.023-0.048-0.012-0.228,0.036-0.539c0.239-0.455,0.575-0.706,1.006-0.753c0.431,0.263,0.646,0.538,0.646,0.826
		c-0.048,0.096-0.155,0.354-0.323,0.771c-0.167,0.418-0.407,1-0.718,1.742l0.107,0.143c0.479-0.454,1.06-1.017,1.741-1.688
		c0.683-0.669,1.477-1.459,2.387-2.369v-0.071c0-0.145-0.023-0.145-0.072,0c0.072-0.024,0.148-0.109,0.234-0.251
		c0.084-0.145,0.174-0.215,0.268-0.215c0.074,0,0.174,0.011,0.307,0.035c0.131,0.024,0.232,0.036,0.305,0.036
		C74.049,53.827,74.229,54.042,74.277,54.113z"/>
	<path fill="#D03F4A" d="M84.398,47.042c-0.191,0.287-0.418,0.765-0.682,1.435c-0.145,0.096-0.418,0.622-0.826,1.58
		c-0.215,0.048-0.479,0.408-0.789,1.077c-0.334,0.718-0.502,1.197-0.502,1.436l-0.18-0.072c-0.838,2.441-1.258,3.853-1.258,4.236
		c-0.215,0.143-0.32,0.419-0.32,0.824c0,0.169,0.035,0.264,0.105,0.289c-0.047,0.022-0.096,0.059-0.143,0.106
		c-0.049,0.048-0.107,0.097-0.18,0.145l0.143,0.106c-0.166,0.168-0.287,1.186-0.357,3.053l-0.037-0.037
		c-0.047,0-0.113,0.024-0.197,0.072s-0.16,0.071-0.232,0.071c-0.023,0-0.127-0.042-0.305-0.125c-0.18-0.084-0.307-0.126-0.379-0.126
		c-0.047,0-0.082,0.013-0.105,0.035l0.143-0.143l-0.252-0.144v-1.113c0.096-0.119,0.199-0.287,0.305-0.503
		c0.109-0.215,0.246-0.453,0.414-0.717c0-0.145,0.023-0.348,0.072-0.61c0.047-0.264,0.07-0.467,0.07-0.61l-0.287-0.287
		c-0.096,0.216-0.143,0.383-0.143,0.502c-0.217,0.167-0.49,0.431-0.826,0.79l-0.717,0.861c-0.025,0.144-0.098,0.24-0.217,0.287
		c-0.072,0.024-0.131,0.036-0.18,0.036l0.107,0.107c-0.119,0.049-0.514,0.348-1.184,0.897c-0.693,0.575-1.174,0.861-1.436,0.861
		c-0.119,0-0.191-0.035-0.217-0.106l-0.178,0.179c-0.049-0.072-0.217-0.168-0.504-0.288l0.145-0.143
		c-0.096-0.096-0.145-0.167-0.145-0.216c0-0.047,0.025-0.072,0.072-0.072l-0.18-0.035c0.096-0.334,0.18-0.896,0.252-1.688
		l0.18,0.036c0.047-0.047,0.072-0.144,0.072-0.287c0-0.071,0.191-0.287,0.574-0.646l0.646-0.575l-0.18-0.071
		c0.813-0.958,2.355-2.572,4.629-4.846l0.18-0.18c0.119,0,0.217-0.059,0.289-0.18c0.07-0.119,0.129-0.179,0.18-0.179
		c0.047,0,0.111,0.011,0.195,0.035c0.084,0.024,0.15,0.037,0.197,0.037c0.025,0.023,0.037,0.023,0.037,0
		c0-0.024-0.012-0.048-0.037-0.072c-0.023-0.024-0.035-0.047-0.035-0.072c0-0.048,0.023-0.048,0.072,0
		c0.406,0,0.609-0.431,0.609-1.292c0.766-1.364,1.102-2.154,1.006-2.369l0.18,0.071c0.047-0.119,0.125-0.28,0.232-0.484
		c0.107-0.204,0.221-0.436,0.342-0.699c0.287-0.551,0.598-0.826,0.932-0.826C83.836,46.396,84.113,46.611,84.398,47.042z
		 M79.518,54.005c-0.119,0.049-0.223,0.084-0.307,0.107c-0.082,0.024-0.148,0.048-0.195,0.072c0.094,0.095,0.143,0.156,0.143,0.179
		c0,0.025-0.012,0.037-0.037,0.037c-0.047-0.024-0.094-0.048-0.143-0.072c-0.049-0.023-0.096-0.048-0.143-0.071
		c-0.576,0.598-1.084,1.125-1.527,1.579c-0.443,0.456-0.818,0.85-1.129,1.185c-1.316,1.389-1.975,2.356-1.975,2.907
		c0,0.144,0.047,0.264,0.143,0.358c0.023-0.07,0.084-0.083,0.182-0.035c0.309-0.287,0.639-0.598,0.986-0.934
		c0.346-0.334,0.723-0.705,1.129-1.113c0.121-0.166,0.246-0.322,0.379-0.466c0.131-0.144,0.279-0.287,0.447-0.431l0.684-0.897
		c0.07,0,0.119-0.029,0.143-0.09c0.023-0.06,0.047-0.138,0.072-0.234c0.023-0.094,0.059-0.184,0.107-0.269
		c0.047-0.083,0.131-0.125,0.252-0.125c-0.025-0.024-0.037-0.06-0.037-0.107c0-0.119,0.166-0.347,0.502-0.682
		C79.219,54.711,79.326,54.412,79.518,54.005z"/>
	<path fill="#D03F4A" d="M102.598,48.334c-0.502,0.502-1.197,1.436-2.082,2.8c-0.574,0.263-1.387,1.221-2.441,2.872
		c-0.166,0.265-0.346,0.652-0.537,1.167c-0.191,0.516-0.385,1.167-0.574,1.956c-0.145,0.169-0.383,0.683-0.719,1.545
		c-0.287,0.837-0.43,1.364-0.43,1.579c0,0.097-0.014,0.144-0.037,0.144h-0.143v0.036c0,0.454-0.168,1.089-0.504,1.902
		c-0.215,0.502-0.389,0.915-0.521,1.238c-0.131,0.323-0.221,0.568-0.268,0.735c-0.096,0.12-0.227,0.36-0.395,0.718
		c-0.168,0.359-0.371,0.838-0.609,1.436c-0.193,0-0.336,0.334-0.432,1.006c-0.121,0.264-0.293,0.563-0.521,0.896
		c-0.227,0.334-0.508,0.707-0.842,1.113l0.178,0.145c-0.311,0.525-0.641,1.076-0.986,1.65c-0.348,0.574-0.725,1.172-1.131,1.795
		c-0.432,0.623-1.09,1.291-1.975,2.012c-1.053,0.861-1.842,1.291-2.369,1.291h-0.826c0.049-0.049,0.072-0.084,0.072-0.109
		c0-0.094-0.059-0.143-0.18-0.143c-0.047,0-0.107,0.018-0.18,0.053c-0.072,0.037-0.131,0.055-0.178,0.055
		c-0.025-0.023-0.09-0.076-0.199-0.16c-0.107-0.086-0.279-0.223-0.521-0.414c-0.691-0.551-1.135-1.1-1.326-1.65
		c-0.383-1.125-0.623-1.734-0.717-1.832c0.119-0.285,0.201-1.16,0.25-2.619c0-0.957,0.156-1.629,0.467-2.012l-0.107-0.178
		c0.119-0.072,0.49-0.467,1.113-1.186c0.549-0.623,0.92-0.934,1.111-0.934c0.287,0,0.563,0.072,0.826,0.217
		c-0.049,0.047-0.203,0.191-0.467,0.43c-0.264,0.24-0.633,0.563-1.113,0.969c-0.166,0.145-0.322,0.408-0.467,0.791
		c-0.143,0.383-0.287,0.646-0.432,0.789c0,0.334-0.082,0.789-0.25,1.365l0.145,0.25l-0.072-0.035c-0.072,0-0.107,0.049-0.107,0.143
		c0,0.096,0.029,0.252,0.09,0.467c0.059,0.217,0.09,0.383,0.09,0.502c0,0.551,0.096,1.078,0.287,1.58
		c0.24,0.525,0.383,0.945,0.43,1.256c0.145,0.049,0.264,0.121,0.359,0.217l-0.145,0.072c0.672,0.789,1.34,1.184,2.012,1.184
		c0.07,0,0.232-0.059,0.484-0.18c0.25-0.121,0.438-0.178,0.557-0.178c0.072,0,0.516-0.348,1.328-1.043
		c0.789-0.67,1.184-1.053,1.184-1.148l-0.072-0.143l0.18,0.07c0.049-0.096,0.145-0.246,0.287-0.447
		c0.145-0.205,0.324-0.475,0.539-0.809c0.264-0.406,0.516-0.807,0.754-1.203c0.24-0.395,0.49-0.795,0.754-1.201
		c0.551-0.887,0.957-1.736,1.221-2.549l0.252-0.109c-0.049-0.047-0.086-0.07-0.109-0.07s-0.049,0.012-0.07,0.035
		c0.453-0.742,0.818-1.453,1.094-2.135c0.275-0.682,0.461-1.346,0.557-1.992c0.287-0.312,0.432-0.742,0.432-1.292
		c0.168-0.526,0.389-1.173,0.662-1.938c0.277-0.767,0.605-1.651,0.988-2.657l-0.215-0.251c-0.049,0.096-0.096,0.275-0.145,0.539
		c-0.168-0.024-0.322,0.072-0.465,0.287c-0.145,0.216-0.252,0.322-0.324,0.322c-0.168,0.096-0.252,0.264-0.252,0.504
		c-0.166,0.022-0.375,0.174-0.627,0.447c-0.252,0.276-0.391,0.498-0.414,0.665l-0.215-0.035c-0.049,0-0.107,0.041-0.18,0.125
		c-0.07,0.084-0.143,0.18-0.215,0.286c-0.072,0.109-0.133,0.21-0.18,0.306c-0.049,0.096-0.072,0.167-0.072,0.215
		c-0.096,0-0.322,0.181-0.682,0.539c-0.336,0.335-0.609,0.503-0.826,0.503c-0.047,0-0.287-0.145-0.717-0.431v-0.431
		c0.047-0.049,0.113-0.161,0.197-0.341c0.084-0.181,0.186-0.402,0.305-0.665v-0.071c-0.072-0.145-0.109-0.228-0.109-0.251
		c0-0.048,0.068-0.192,0.199-0.431c0.131-0.239,0.197-0.456,0.197-0.647c0-0.119-0.014-0.215-0.035-0.287l0.18,0.108
		c0.357-1.028,0.525-1.867,0.502-2.513c0.047-0.023,0.191-0.215,0.43-0.575c0.215-0.334,0.383-0.501,0.504-0.501
		c0.07,0,0.189,0.018,0.357,0.054c0.168,0.036,0.289,0.053,0.359,0.053c-0.047,0.143-0.07,0.251-0.07,0.323
		c0,0.239,0.084,0.395,0.25,0.466v0.288c-0.406,0.407-0.803,1.113-1.186,2.118c-0.119,0.264-0.209,0.49-0.268,0.683
		c-0.061,0.191-0.115,0.347-0.162,0.466c-0.072,0.144-0.119,0.275-0.143,0.396c0.023,0.023,0.07,0.035,0.143,0.035
		c0.166,0,0.418-0.202,0.754-0.61l0.682-0.825c1.27-1.269,1.867-1.974,1.795-2.118c0.455-0.311,0.908-0.801,1.365-1.472
		c0.453-0.669,0.705-1.279,0.754-1.831c0.238-0.381,0.357-0.526,0.357-0.431c0-0.047-0.035-0.072-0.107-0.072
		c0.406-0.286,0.838-0.945,1.293-1.974c0.453-0.958,0.955-1.567,1.508-1.832c0.311-0.166,0.705-0.25,1.184-0.25
		c0.072,0,0.229,0.12,0.467,0.359c0.047,0.119,0.084,0.233,0.107,0.341S102.574,48.238,102.598,48.334z"/>
	<path fill="#D03F4A" d="M104.607,54.508c0,0.981-0.262,1.999-0.789,3.05c-0.096,0.192-0.281,0.51-0.557,0.952
		s-0.639,1.035-1.094,1.776c-0.072,0-0.168,0.042-0.287,0.126c-0.121,0.085-0.24,0.174-0.361,0.27
		c-0.119,0.097-0.273,0.228-0.465,0.396c-0.023,0-0.049,0.013-0.072,0.035c0-0.022-0.061,0-0.18,0.071
		c-0.119,0.073-0.25,0.108-0.395,0.108c-0.193,0-0.467,0.059-0.826,0.18c-0.07-0.049-0.131-0.096-0.178-0.144l-0.072-0.071
		c-0.217-0.097-0.408-0.324-0.576-0.683c-0.166-0.358-0.285-0.646-0.357-0.861l0.143-0.108c0-0.861,0.168-1.531,0.504-2.01
		c0.215-0.311,0.377-0.551,0.484-0.718s0.174-0.263,0.197-0.287c0.049-0.12,0.049-0.204,0-0.252c0.74-0.718,1.209-1.352,1.4-1.902
		c0.072-0.047,0.357-0.358,0.861-0.934c0.311-0.383,0.645-0.61,1.004-0.682l0.18-0.18h0.359c0.191,0,0.418,0.251,0.682,0.755
		C104.477,53.875,104.607,54.245,104.607,54.508z M103.676,54.688c-0.098-0.072-0.156-0.167-0.18-0.288v0.036
		c0-0.024-0.012-0.047-0.037-0.072l-0.107-0.071c-0.047,0.024-0.096,0.06-0.145,0.107c-0.047,0.048-0.119,0.095-0.215,0.143
		l-0.18-0.071c-0.502,0.598-0.98,1.077-1.434,1.435l0.141,0.108c-0.383,0.192-0.801,0.694-1.254,1.507
		c-0.455,0.813-0.684,1.437-0.684,1.867c0,0.312,0.049,0.502,0.145,0.574c0.143,0.168,0.334,0.252,0.574,0.252
		c0.047,0,0.107-0.037,0.18-0.109l0.178-0.07c0.049,0,0.074-0.029,0.074-0.091c0-0.06,0.035-0.09,0.105-0.09
		c0.098,0,0.348-0.202,0.756-0.61c0.453-0.431,0.729-0.717,0.824-0.861c0.096-0.143,0.49-1.064,1.186-2.764
		c-0.049-0.095-0.119-0.239-0.217-0.431c0.049-0.023,0.09-0.048,0.127-0.071c0.035-0.024,0.076-0.048,0.125-0.072
		c-0.072-0.072-0.154-0.143-0.252-0.215c0.049-0.024,0.098-0.042,0.145-0.053C103.578,54.765,103.627,54.736,103.676,54.688z"/>
	<path fill="#D03F4A" d="M112.828,52.354c0.023,0.048,0.047,0.096,0.07,0.144c0.025,0.048,0.061,0.095,0.109,0.143
		c-0.217,0.335-0.467,0.659-0.754,0.97c-0.145,0.479-0.408,1.112-0.789,1.902l0.07,0.179c-0.168,0.095-0.25,0.179-0.25,0.252
		c0,0.048,0.021,0.071,0.07,0.071l-0.357,0.539l0.25,0.287l-0.107-0.036c-0.096,0.023-0.18,0.095-0.252,0.215l0.072,0.036
		l-0.107,0.215l-0.07-0.145c-0.025,0.192-0.043,0.378-0.055,0.557c-0.014,0.18-0.02,0.33-0.02,0.449l-0.178-0.071
		c-0.17,0.599-0.301,1.137-0.396,1.614c-0.094,0.479-0.154,0.922-0.178,1.329c-0.025,0.023-0.037,0.048-0.037,0.072
		c0,0.048,0.037,0.083,0.107,0.106c-0.047,0.024-0.203,0.204-0.467,0.539c-0.166,0.19-0.381,0.311-0.645,0.358l0.18-0.071
		c-0.145-0.168-0.408-0.251-0.791-0.251l0.18-0.216c-0.047-0.023-0.096-0.048-0.145-0.071c-0.047-0.024-0.096-0.049-0.143-0.073
		c0.551-0.98,0.801-1.781,0.754-2.404c0.264-0.334,0.395-0.682,0.395-1.041c0.072-0.19,0.215-0.489,0.432-0.897v-0.251l-0.145-0.144
		c-0.119,0.072-0.371,0.359-0.754,0.861c-0.406,0.479-0.645,0.719-0.719,0.719c-0.047,0-0.238,0.203-0.574,0.609
		c-0.287,0.407-0.441,0.61-0.465,0.61c-0.025,0-0.266,0.215-0.719,0.646c-0.479,0.431-0.969,0.646-1.473,0.646v-0.143h-0.07
		c0.047,0,0-0.061-0.145-0.18c-0.143-0.119-0.215-0.192-0.215-0.215l-0.072-0.18c0.072-0.097,0.107-0.293,0.107-0.592
		c0-0.3,0.061-0.485,0.18-0.558c-0.049-0.047-0.143-0.095-0.287-0.144c0.096-0.096,0.336-0.539,0.719-1.328
		c0.406-0.861,0.609-1.329,0.609-1.4l-0.107-0.18c0.383-0.383,0.574-0.836,0.574-1.363c0.023-0.048,0.109-0.145,0.252-0.288
		c-0.096-0.048-0.191-0.12-0.287-0.215l0.035-0.107l-0.07-0.109c0.381-0.287,0.572-0.441,0.572-0.466
		c0.047,0,0.131,0.013,0.252,0.036c0.119,0.025,0.203,0.037,0.252,0.037c0.383,0.263,0.705,0.443,0.969,0.538v0.396
		c0,0.071-0.037,0.107-0.107,0.107l-0.107-0.037c-0.049,0.192-0.359,0.646-0.934,1.365c-0.098,0-0.18,0.215-0.252,0.646
		c-0.215,0.167-0.395,0.515-0.539,1.041c-0.049,0.191-0.105,0.39-0.178,0.593c-0.072,0.202-0.133,0.401-0.18,0.592
		c-0.072,0-0.109,0.013-0.109,0.035c0,0.097,0.156,0.145,0.467,0.145c0.24,0,0.719-0.515,1.438-1.543
		c0.166-0.097,0.25-0.24,0.25-0.431c0.289-0.239,0.527-0.443,0.719-0.61c0.191-0.167,0.346-0.312,0.467-0.431
		c0.406-0.479,0.693-0.922,0.861-1.329c0.168-0.143,0.453-0.574,0.861-1.292c0.406-0.741,0.611-1.22,0.611-1.436
		c0.119,0,0.311-0.03,0.572-0.09c0.264-0.06,0.455-0.09,0.574-0.09c0.145,0,0.299,0.192,0.469,0.574L112.828,52.354z
		 M110.027,56.482c-0.047-0.047-0.096-0.071-0.143-0.071c-0.096,0-0.191,0.048-0.287,0.144l0.25,0.215l-0.07-0.215
		C109.824,56.459,109.908,56.435,110.027,56.482z"/>
	<path fill="#D03F4A" d="M119.611,52.965c0,0.479-0.586,2.009-1.758,4.593c-0.193-0.022-0.443-0.058-0.754-0.106
		c0-0.072-0.014-0.132-0.037-0.18v-0.145c0-0.071,0.014-0.119,0.037-0.143c0.096-0.167,0.143-0.383,0.143-0.646
		c0-0.119,0.037-0.179,0.109-0.179l0.107,0.071c0.021-0.071,0.059-0.36,0.107-0.861c0.023-0.334,0.156-0.563,0.395-0.682
		l-0.072-0.36c-0.096,0.048-0.209,0.121-0.34,0.215c-0.133,0.096-0.295,0.204-0.486,0.323c-0.502,0.358-0.754,0.623-0.754,0.789
		c0.025,0.025,0.037,0.043,0.037,0.055c0,0.012,0.012,0.03,0.035,0.054c-0.145,0.048-0.346,0.264-0.609,0.646
		c-0.408,0.334-0.875,0.945-1.4,1.831c-0.6,0.981-0.826,1.675-0.682,2.081c-0.098,0.048-0.275,0.252-0.539,0.61
		c-0.121,0.145-0.43,0.312-0.934,0.503c0-0.096-0.078-0.197-0.232-0.306c-0.156-0.107-0.234-0.197-0.234-0.269
		c0,0.097,0.072-0.096,0.215-0.575c-0.023-0.167,0.24-0.884,0.791-2.153c0.551-1.292,0.826-2.141,0.826-2.548
		c0-0.095-0.025-0.222-0.072-0.376c-0.049-0.156-0.072-0.27-0.072-0.342c0.264-0.478,0.504-0.718,0.719-0.718
		c0.574,0,0.896,0.145,0.969,0.431c0.096,0.408,0.18,0.646,0.25,0.719c0.119-0.192,0.324-0.419,0.611-0.683
		c0.287-0.263,0.633-0.586,1.041-0.969c0.885-0.765,1.447-1.148,1.688-1.148h0.502c0,0.048,0.049,0.114,0.145,0.197
		C119.455,52.779,119.541,52.869,119.611,52.965z"/>
	<path fill="#D03F4A" d="M124.674,53.144c0,0.072-0.031,0.168-0.09,0.287c-0.061,0.12-0.09,0.215-0.09,0.287
		c-0.24,0-0.359,0.12-0.359,0.36c-0.072,0-0.191-0.013-0.359-0.036c-0.168-0.024-0.287-0.037-0.357-0.037
		c-0.217,0.837-0.396,1.508-0.541,2.01c-0.141,0.503-0.238,0.85-0.285,1.041c-0.359,1.269-0.719,2.237-1.078,2.908
		c-0.047,0.049-0.215,0.245-0.502,0.593c-0.287,0.347-0.67,0.831-1.148,1.453l-0.18-0.036l-0.287,0.251h-0.646
		c-0.072,0-0.119-0.029-0.145-0.09c-0.021-0.06-0.082-0.089-0.178-0.089c-0.168,0-0.336-0.432-0.504-1.293l0.18-0.216
		c0.145,0,0.467,0.085,0.971,0.252l0.143,0.179v-0.035c0.023-0.023,0.084-0.035,0.18-0.035l0.791-0.611
		c0.07-0.334,0.299-0.896,0.682-1.687c0.334-0.718,0.502-1.4,0.502-2.046c0.191-0.191,0.287-0.562,0.287-1.114
		c0-0.094,0.035-0.25,0.107-0.466c0.072-0.216,0.107-0.383,0.107-0.502c0.168-0.36,0.252-0.586,0.252-0.683
		c0-0.119-0.049-0.215-0.145-0.288c0.096-0.143,0.229-0.215,0.395-0.215c0.072,0,0.348-0.322,0.826-0.969
		c0.023-0.024,0.023-0.06,0-0.107h0.432c0.119-0.023,0.215-0.036,0.285-0.036c0.072,0,0.133,0,0.18,0
		c0.121,0,0.246,0.125,0.377,0.376C124.607,52.803,124.674,53,124.674,53.144z"/>
	<path fill="#D03F4A" d="M128.299,59.57c0,0.431-0.359,0.945-1.076,1.543c-0.145,0-0.359,0.035-0.646,0.107
		c-0.121-0.072-0.24-0.162-0.359-0.269c-0.121-0.108-0.264-0.222-0.432-0.341l0.107-0.467c0.574-0.886,1.125-1.329,1.652-1.329
		c0.143,0,0.305,0.09,0.484,0.27C128.209,59.265,128.299,59.425,128.299,59.57z"/>
	<path fill="#D03F4A" d="M134.148,59.57c0,0.431-0.357,0.945-1.076,1.543c-0.145,0-0.359,0.035-0.646,0.107
		c-0.119-0.072-0.238-0.162-0.359-0.269c-0.119-0.108-0.264-0.222-0.43-0.341l0.107-0.467c0.574-0.886,1.125-1.329,1.65-1.329
		c0.145,0,0.307,0.09,0.484,0.27C134.059,59.265,134.148,59.425,134.148,59.57z"/>
	<path fill="#D03F4A" d="M140,59.57c0,0.431-0.359,0.945-1.076,1.543c-0.145,0-0.359,0.035-0.646,0.107
		c-0.121-0.072-0.24-0.162-0.359-0.269c-0.121-0.108-0.264-0.222-0.43-0.341l0.105-0.467c0.576-0.886,1.125-1.329,1.652-1.329
		c0.145,0,0.305,0.09,0.484,0.27C139.912,59.265,140,59.425,140,59.57z"/>
</g>
</svg>
