<?xml version="1.0" encoding="utf-8"?>
<!-- Generator: Adobe Illustrator 16.0.3, SVG Export Plug-In . SVG Version: 6.00 Build 0)  -->
<!DOCTYPE svg PUBLIC "-//W3C//DTD SVG 1.1//EN" "http://www.w3.org/Graphics/SVG/1.1/DTD/svg11.dtd">
<svg version="1.1" id="Layer_1" xmlns="http://www.w3.org/2000/svg" xmlns:xlink="http://www.w3.org/1999/xlink" x="0px" y="0px"
	 width="60px" height="60px" viewBox="0 0 60 60" enable-background="new 0 0 60 60" xml:space="preserve">
<path fill-rule="evenodd" clip-rule="evenodd" d="M35.521,18c2.698-2.709,5.353-5.372,8.047-8.074c-1.522,0-2.992,0-4.567,0
	c0-3.02,0-5.954,0-8.925c6.661,0,13.233,0,19.922,0c0,6.648,0,13.3,0,19.999c-2.932,0-5.866,0-8.851,0c0-1.544,0-3.068,0-4.719
	c-0.222,0.174-5.339,5.25-7.786,7.666c-0.338,0.334-0.311,0.553-0.078,0.932c8.127,13.298,0.926,30.191-14.318,33.609
	C15.867,61.183,3.55,52.967,1.372,40.801c-2.167-12.1,5.338-23.404,17.337-25.967c5.739-1.227,11.165-0.228,16.205,2.797
	C35.113,17.75,35.309,17.87,35.521,18z M23.285,23.273c-7.427,0.009-13.406,6.015-13.388,13.446
	c0.017,7.336,6.037,13.33,13.377,13.322c7.422-0.01,13.411-6.023,13.39-13.449C36.646,29.254,30.626,23.263,23.285,23.273z"/>
</svg>
