<?xml version="1.0" encoding="utf-8"?>
<!-- Generator: Adobe Illustrator 16.0.3, SVG Export Plug-In . SVG Version: 6.00 Build 0)  -->
<!DOCTYPE svg PUBLIC "-//W3C//DTD SVG 1.1//EN" "http://www.w3.org/Graphics/SVG/1.1/DTD/svg11.dtd">
<svg version="1.1" id="Layer_1" xmlns="http://www.w3.org/2000/svg" xmlns:xlink="http://www.w3.org/1999/xlink" x="0px" y="0px"
	 width="60px" height="60px" viewBox="0 0 60 60" enable-background="new 0 0 60 60" xml:space="preserve">
<path fill-rule="evenodd" clip-rule="evenodd" d="M47.888,16.653C46.784,8.084,39.523,1.398,30.9,1.018
	c-8.867-0.391-16.767,5.701-18.504,14.279c-0.871,4.307-0.319,8.431,1.796,12.286c2.593,4.726,6.626,7.672,11.808,8.995
	c0,2.172,0,4.241,0,6.423c-2.005,0-4.047,0-6,0c0,2.683,0,5.322,0,8c1.997,0,4.003,0,6,0c0,1.996,0.007,4.002,0.007,6
	c2.722,0,5.314,0,7.993,0c0-1.998,0-3.981,0-6c2.012,0,4.034,0,6,0c0-2.701,0-5.321,0-8c-1.995,0-4.025,0-6,0
	c0-2.182,0-4.297,0-6.425C43.064,34.423,49.077,25.911,47.888,16.653z M30.527,30.022C24.9,29.997,19.979,25.306,20,19.635
	C20.021,13.842,24.986,9.27,30.836,9.3C36.451,9.33,41.029,14.04,41,19.718C40.969,25.472,36.334,30.049,30.527,30.022z"/>
</svg>
