<?xml version="1.0" encoding="utf-8"?>
<!-- Generator: Adobe Illustrator 16.0.3, SVG Export Plug-In . SVG Version: 6.00 Build 0)  -->
<!DOCTYPE svg PUBLIC "-//W3C//DTD SVG 1.1//EN" "http://www.w3.org/Graphics/SVG/1.1/DTD/svg11.dtd">
<svg version="1.1" id="Layer_1" xmlns="http://www.w3.org/2000/svg" xmlns:xlink="http://www.w3.org/1999/xlink" x="0px" y="0px"
	 width="80px" height="80px" viewBox="0 0 80 80" enable-background="new 0 0 80 80" xml:space="preserve">
<g>
	<g>
		<path fill="#96D03F" d="M0,79.281l12.321-25.063c-3.263-5.148-4.623-10.523-4.623-17.896C7.698,16.295,23.918,0,43.86,0
			C63.785,0,80,16.295,80,36.322c0,20.02-16.215,36.322-36.14,36.322c-6.824,0-13.4-1.891-19.129-5.491
			c-2.909,1.388-8.595,4.176-13.76,6.719L0,79.281z M25.118,58.238h1.35l1.095,0.791c4.762,3.462,10.402,5.287,16.298,5.287
			c15.329,0,27.806-12.554,27.806-27.994c0-15.438-12.477-27.996-27.806-27.996c-15.353,0-27.845,12.559-27.845,27.996
			c0,6.614,1.211,10.695,4.463,15.064l1.516,2.046l-3.739,7.582C23.968,58.238,24.239,58.238,25.118,58.238z"/>
	</g>
	<g>
		<path fill="#96D03F" d="M35.294,35.985c0,2.284-1.869,4.131-4.159,4.131c-2.295,0-4.158-1.847-4.158-4.131
			c0-2.276,1.863-4.134,4.158-4.134C33.425,31.852,35.294,33.709,35.294,35.985z"/>
		<path fill="#96D03F" d="M49.003,35.985c0,2.284-1.869,4.131-4.164,4.131s-4.158-1.847-4.158-4.131
			c0-2.276,1.863-4.134,4.158-4.134S49.003,33.709,49.003,35.985z"/>
		<path fill="#96D03F" d="M62.242,35.922c0,2.272-1.863,4.128-4.153,4.128c-2.3,0-4.164-1.855-4.164-4.128
			c0-2.273,1.864-4.123,4.164-4.123C60.379,31.799,62.242,33.648,62.242,35.922z"/>
	</g>
</g>
</svg>
