<?xml version="1.0" encoding="utf-8"?>
<!-- Generator: Adobe Illustrator 16.0.3, SVG Export Plug-In . SVG Version: 6.00 Build 0)  -->
<!DOCTYPE svg PUBLIC "-//W3C//DTD SVG 1.1//EN" "http://www.w3.org/Graphics/SVG/1.1/DTD/svg11.dtd">
<svg version="1.1" id="Layer_1" xmlns="http://www.w3.org/2000/svg" xmlns:xlink="http://www.w3.org/1999/xlink" x="0px" y="0px"
	 width="80px" height="80px" viewBox="0 0 80 80" enable-background="new 0 0 80 80" xml:space="preserve">
<path fill="#EDF0F1" d="M56.537,23.463C51.975,18.9,46.006,16.6,40,16.6V40L23.463,56.537c9.125,9.125,23.948,9.125,33.112,0
	C65.7,47.411,65.7,32.59,56.537,23.463z M40,1C18.474,1,1,18.472,1,40c0,21.526,17.474,39,39,39s39-17.474,39-39
	C79,18.472,61.526,1,40,1z M40,71.2C22.762,71.2,8.8,57.237,8.8,40C8.8,22.762,22.762,8.8,40,8.8c17.237,0,31.2,13.962,31.2,31.2
	C71.2,57.237,57.237,71.2,40,71.2z"/>
</svg>
