<?xml version="1.0" encoding="utf-8"?>
<!-- Generator: Adobe Illustrator 19.0.0, SVG Export Plug-In . SVG Version: 6.00 Build 0)  -->
<svg version="1.1" id="Layer_1" xmlns="http://www.w3.org/2000/svg" xmlns:xlink="http://www.w3.org/1999/xlink" x="0px" y="0px"
	 viewBox="0 0 40 40" style="enable-background:new 0 0 40 40;" xml:space="preserve">
<style type="text/css">
	.st0{fill:#2E3E51;}
</style>
<g>
	<g>
		<g>
			<path class="st0" d="M20,15.8c2.3,0,4.1,1.9,4.1,4.1c0,2.3-1.9,4.1-4.1,4.1c-2.3,0-4.1-1.9-4.1-4.1C15.8,17.6,17.7,15.8,20,15.8
				 M20,11.3c-4.8,0-8.6,3.9-8.6,8.6c0,4.8,3.9,8.6,8.6,8.6s8.6-3.9,8.6-8.6C28.6,15.1,24.7,11.3,20,11.3L20,11.3z"/>
		</g>
	</g>
	<g>
		<g>
			<path class="st0" d="M21.4,2.2l0.2,0.9l0.3,1.5l1.4,0.3c1.8,0.4,3.4,1.1,4.9,2l1.3,0.8l1.2-0.8l0.7-0.5l2.1,2.1l-0.5,0.8
				l-0.8,1.2l0.8,1.2c1,1.5,1.7,3.2,2.1,4.9l0.3,1.4l1.5,0.3l0.9,0.2v3l-0.9,0.2l-1.5,0.3l-0.3,1.4c-0.4,1.8-1.1,3.4-2,4.9l-0.8,1.3
				l0.9,1.2l0.5,0.7l-2.1,2.1l-0.7-0.5l-1.2-0.8L28.3,33c-1.5,1-3.2,1.7-4.9,2.1l-1.5,0.3l-0.3,1.5l-0.2,0.9h-3l-0.2-0.9l-0.3-1.5
				l-1.4-0.3c-1.8-0.4-3.4-1.1-4.9-2l-1.3-0.8l-1.2,0.8l-0.7,0.5l-2.1-2.1l0.5-0.8l0.8-1.2L7,28.3c-1-1.5-1.7-3.2-2.1-4.9L4.6,22
				l-1.5-0.3l-0.9-0.2v-3l0.9-0.2l1.5-0.3l0.3-1.4c0.4-1.8,1.1-3.4,2-5l0.8-1.3L6.9,9.3L6.4,8.5l2.1-2.1l0.8,0.5l1.2,0.8L11.7,7
				c1.5-1,3.2-1.7,4.9-2.1L18,4.6l0.3-1.5l0.2-0.9H21.4 M23.3,0h-6.7l-0.5,2.7c-2,0.5-3.9,1.3-5.7,2.4L8.2,3.5L3.5,8.3L5,10.5
				c-1.1,1.7-1.9,3.6-2.3,5.7L0,16.7v6.7l2.7,0.5c0.5,2,1.3,3.9,2.4,5.7l-1.6,2.3l4.7,4.7l2.3-1.6c1.7,1.1,3.6,1.9,5.7,2.3l0.5,2.7
				h6.7l0.5-2.7c2-0.5,3.9-1.3,5.7-2.4l2.3,1.6l4.7-4.7L35,29.5c1.1-1.7,1.9-3.6,2.3-5.7l2.7-0.5v-6.7l-2.7-0.5
				c-0.5-2-1.3-3.9-2.4-5.7l1.6-2.3l-4.7-4.7L29.5,5c-1.7-1.1-3.6-1.9-5.7-2.3L23.3,0L23.3,0z"/>
		</g>
	</g>
</g>
</svg>
