<?xml version="1.0" encoding="utf-8"?>
<!-- Generator: Adobe Illustrator 19.0.0, SVG Export Plug-In . SVG Version: 6.00 Build 0)  -->
<svg version="1.1" id="Layer_1" xmlns="http://www.w3.org/2000/svg" xmlns:xlink="http://www.w3.org/1999/xlink" x="0px" y="0px"
	 viewBox="-987 989 24 24" style="enable-background:new -987 989 24 24;" xml:space="preserve">
<path d="M-975,994.9c1.2,0,2.1,0.9,2.1,2.1s-0.9,2.1-2.1,2.1s-2.1-0.9-2.1-2.1S-976.2,994.9-975,994.9 M-975,1003.9
	c3,0,6.1,1.5,6.1,2.1v1.1h-12.2v-1.1C-981.1,1005.4-978,1003.9-975,1003.9 M-975,993c-2.2,0-4,1.8-4,4s1.8,4,4,4s4-1.8,4-4
	S-972.8,993-975,993z M-975,1002c-2.7,0-8,1.3-8,4v3h16v-3C-967,1003.3-972.3,1002-975,1002z"/>
</svg>
