<?xml version="1.0" encoding="utf-8"?>
<!-- Generator: Adobe Illustrator 19.0.0, SVG Export Plug-In . SVG Version: 6.00 Build 0)  -->
<svg version="1.1" id="Layer_1" xmlns="http://www.w3.org/2000/svg" xmlns:xlink="http://www.w3.org/1999/xlink" x="0px" y="0px"
	 viewBox="0 0 40 40" style="enable-background:new 0 0 40 40;" xml:space="preserve">
<style type="text/css">
	.st0{fill-rule:evenodd;clip-rule:evenodd;fill:#2E3E51;}
</style>
<g>
	<path id="XMLID_2_" class="st0" d="M34.3,10.5c-0.6,0-1.2,0-1.8,0c-0.7,0-1.5,0-2.2,0c-0.3,0-0.5-0.1-0.7-0.3
		c-2.3-2.6-5.2-4.2-8.7-4.8C14.3,4.3,7.8,7.8,5,13.9c-4,8.7,1.2,18.9,10.6,20.7c5.3,1,9.8-0.5,13.6-4.3c0.2-0.2,0.5-0.4,0.8-0.4
		c1.3,0,2.7,0,4,0c-2.7,4.9-9.7,9.7-18.1,8.5C6.8,37,0.1,29.3,0,20.1c-0.1-9,6.7-17,15.6-18.3C24.7,0.3,31.7,5.6,34.3,10.5z"/>
	<path id="XMLID_1_" class="st0" d="M13.5,20.8c0-1.6,0,0.3,0-1.3c5.8,0,11.6,0,17.4,0c0-1.5,0-4.6,0-6.1C34,15.8,37,18,40,20.2
		c-3,2.3-6,4.5-9.1,6.8c0-1.5,0-4.7,0-6.2C25.1,20.8,19.3,20.8,13.5,20.8z"/>
</g>
</svg>
