<?xml version="1.0" encoding="utf-8"?>
<!-- Generator: Adobe Illustrator 16.0.0, SVG Export Plug-In . SVG Version: 6.00 Build 0)  -->
<!DOCTYPE svg PUBLIC "-//W3C//DTD SVG 1.1//EN" "http://www.w3.org/Graphics/SVG/1.1/DTD/svg11.dtd">
<svg version="1.1" id="Layer_1" xmlns="http://www.w3.org/2000/svg" xmlns:xlink="http://www.w3.org/1999/xlink" x="0px" y="0px"
	 width="110.579px" height="119.632px" viewBox="0 0 110.579 119.632" enable-background="new 0 0 110.579 119.632"
	 xml:space="preserve">
<path fill-rule="evenodd" clip-rule="evenodd" fill="#BEC3C7" d="M107.212,119.632c-34.615,0-69.232,0-103.847,0
	c-1.693-0.658-2.769-1.783-2.94-3.682c-0.456-5.018-0.816-10.076,0.421-14.988C3.08,92.077,8.246,85.646,17.28,82.866
	c2.376-0.73,4.854-1.117,7.243-1.809c3.576-1.035,7.21-1.967,10.645-3.371c3.212-1.314,4.256-4.162,3.415-7.541
	c-1.506,0.588-2.974,1.379-4.541,1.73c-5.958,1.342-11.908,1.121-17.796-0.492c-1.579-0.432-2.546-1.523-2.764-3.135
	c-0.217-1.615,0.523-2.799,1.842-3.76c1.725-1.26,3.389-2.609,5.015-3.996c2.254-1.923,3.489-4.459,4.015-7.327
	c0.28-1.524,0.543-3.09,0.507-4.628c-0.111-4.705-0.266-9.413-0.598-14.106c-0.518-7.318,0.754-14.186,4.77-20.412
	C33.19,7.576,38.858,3.04,46.271,0.863C47.896,0.386,49.629,0.278,51.312,0c2.651,0,5.302,0,7.953,0
	c0.224,0.061,0.445,0.166,0.672,0.173c6.169,0.216,11.234,3.057,15.688,6.98c8.164,7.192,11.452,16.379,10.694,27.162
	c-0.347,4.924-0.593,9.868-0.569,14.802c0.021,4.421,1.117,8.586,4.729,11.619c1.517,1.276,3.053,2.538,4.666,3.686
	c1.358,0.967,2.175,2.15,1.94,3.824c-0.248,1.77-1.364,2.871-3.099,3.229c-2.093,0.43-4.194,0.941-6.314,1.086
	c-5.355,0.363-10.688,0.314-15.558-2.482c-0.045-0.025-0.139,0.031-0.297,0.072c0.045,0.947,0.118,1.912,0.131,2.879
	c0.026,2.004,1.04,3.412,2.736,4.297c1.407,0.732,2.859,1.461,4.379,1.881c4.008,1.105,8.052,2.094,12.104,3.035
	c9.921,2.303,15.846,8.713,18.462,18.262c1.371,5.002,0.982,10.189,0.535,15.326C109.996,117.759,108.974,118.968,107.212,119.632z
	 M26.628,65.183c3.729,0.137,7.33-0.424,10.225-3.229c0.947-0.92,1.805-1.934,2.674-2.93c1.277-1.463,2.768-1.946,4.366-1.37
	c1.608,0.579,2.526,1.91,2.499,3.819c-0.055,3.812-0.166,7.625-0.25,11.439c-0.113,5.164-2.57,8.861-7.1,11.219
	c-1.342,0.699-2.714,1.418-4.158,1.826c-4.189,1.186-8.419,2.223-12.637,3.307c-2.677,0.686-5.396,1.254-7.61,3.084
	c-3.577,2.961-6.091,6.592-6.676,11.268c-0.349,2.791-0.347,5.625-0.503,8.443c32.018,0,63.716,0,95.734,0
	c-0.246-3.25-0.085-6.473-0.802-9.488c-1.494-6.301-5.169-10.926-11.719-12.68c-3.155-0.846-6.363-1.488-9.532-2.287
	c-4.048-1.02-8.048-2.186-11.514-4.648c-2.95-2.098-4.82-4.883-5.012-8.555c-0.223-4.273-0.33-8.553-0.424-12.832
	c-0.045-2.028,0.86-3.335,2.507-3.923c1.638-0.582,3.072-0.079,4.437,1.484c0.921,1.053,1.842,2.119,2.865,3.068
	c2.852,2.646,6.367,3.08,10.293,2.992c-5.28-5.457-6.258-12.071-6.118-18.982c0.083-4.083,0.331-8.167,0.652-12.24
	c0.455-5.764-0.472-11.195-3.696-16.066c-3.359-5.074-7.797-8.836-13.92-10.012c-2.458-0.473-5.042-0.288-7.57-0.398
	c-5.841-0.252-10.62,2.164-14.671,6.098c-5.747,5.58-7.854,12.501-7.226,20.398c0.331,4.149,0.543,8.313,0.653,12.475
	c0.122,4.583-0.301,9.131-2.379,13.311C29.08,61.659,27.781,63.368,26.628,65.183z"/>
</svg>
