<?xml version="1.0" encoding="utf-8"?>
<!-- Generator: Adobe Illustrator 16.0.3, SVG Export Plug-In . SVG Version: 6.00 Build 0)  -->
<!DOCTYPE svg PUBLIC "-//W3C//DTD SVG 1.1//EN" "http://www.w3.org/Graphics/SVG/1.1/DTD/svg11.dtd">
<svg version="1.1" id="Layer_1" xmlns="http://www.w3.org/2000/svg" xmlns:xlink="http://www.w3.org/1999/xlink" x="0px" y="0px"
	 width="60px" height="60px" viewBox="0 0 60 60" enable-background="new 0 0 60 60" xml:space="preserve">
<path d="M52.332,6.5H8.667C7.473,6.5,6.5,7.47,6.5,8.662v43.676c0,1.189,0.973,2.162,2.167,2.162h43.666
	c1.195,0,2.168-0.973,2.168-2.162V8.662C54.5,7.47,53.527,6.5,52.332,6.5z M30.5,22.124c4.626,0,8.376,3.75,8.376,8.376
	s-3.75,8.377-8.376,8.377s-8.376-3.751-8.376-8.377S25.874,22.124,30.5,22.124z M48.5,48.5h-36v-21h3.951
	c-0.207,0.97-0.327,1.972-0.327,3c0,7.928,6.45,14.377,14.376,14.377c7.928,0,14.376-6.449,14.376-14.377c0-1.028-0.12-2.03-0.325-3
	H48.5V48.5z M48.5,21.5h-9v-9h9V21.5z"/>
</svg>
