<?xml version="1.0" encoding="utf-8"?>
<!-- Generator: Adobe Illustrator 16.0.3, SVG Export Plug-In . SVG Version: 6.00 Build 0)  -->
<!DOCTYPE svg PUBLIC "-//W3C//DTD SVG 1.1//EN" "http://www.w3.org/Graphics/SVG/1.1/DTD/svg11.dtd">
<svg version="1.1" id="Layer_1" xmlns="http://www.w3.org/2000/svg" xmlns:xlink="http://www.w3.org/1999/xlink" x="0px" y="0px"
	 width="60px" height="60px" viewBox="0 0 60 60" enable-background="new 0 0 60 60" xml:space="preserve">
<path d="M29.441,30.358c8.109,0,14.682-6.573,14.682-14.676C44.123,7.573,37.551,1,29.441,1c-8.108,0-14.679,6.573-14.679,14.682
	C14.763,23.785,21.333,30.358,29.441,30.358z M29.441,8.459c3.99,0,7.226,3.231,7.226,7.222c0,3.987-3.235,7.222-7.226,7.222
	c-3.987,0-7.219-3.234-7.219-7.222C22.222,11.69,25.455,8.459,29.441,8.459z M46.365,32.15c-0.828-1.666-3.125-3.049-6.174-0.646
	c-4.126,3.248-10.75,3.248-10.75,3.248s-6.623,0-10.744-3.248c-3.053-2.403-5.347-1.02-6.174,0.646
	c-1.447,2.904,0.187,4.307,3.871,6.672c3.147,2.02,7.47,2.773,10.261,3.057l-2.329,2.328c-3.285,3.283-6.452,6.453-8.653,8.65
	c-1.312,1.316-1.312,3.447,0,4.762l0.396,0.396c1.316,1.313,3.447,1.313,4.762,0l8.649-8.652c3.286,3.285,6.453,6.453,8.652,8.65
	c1.313,1.314,3.446,1.314,4.76,0l0.396-0.396c1.315-1.313,1.315-3.443,0-4.76l-8.648-8.65l-2.34-2.338
	c2.793-0.287,7.071-1.045,10.191-3.047C46.178,36.457,47.81,35.055,46.365,32.15z"/>
</svg>
