<?xml version="1.0" encoding="utf-8"?>
<!-- Generator: Adobe Illustrator 16.0.3, SVG Export Plug-In . SVG Version: 6.00 Build 0)  -->
<!DOCTYPE svg PUBLIC "-//W3C//DTD SVG 1.1//EN" "http://www.w3.org/Graphics/SVG/1.1/DTD/svg11.dtd">
<svg version="1.1" id="Layer_1" xmlns="http://www.w3.org/2000/svg" xmlns:xlink="http://www.w3.org/1999/xlink" x="0px" y="0px"
	 width="60px" height="60px" viewBox="0 0 60 60" enable-background="new 0 0 60 60" xml:space="preserve">
<path d="M60,11.771c-2.208,0.981-4.581,1.645-7.072,1.941c2.542-1.523,4.495-3.934,5.413-6.812
	c-2.379,1.413-5.013,2.439-7.817,2.988C48.278,7.495,45.076,6,41.54,6c-6.797,0-12.313,5.516-12.313,12.313
	c0,0.966,0.109,1.904,0.323,2.804C19.316,20.605,10.246,15.705,4.173,8.256c-1.058,1.816-1.665,3.934-1.665,6.19
	c0,4.27,2.174,8.034,5.473,10.245c-2.016-0.066-3.913-0.618-5.573-1.541c-0.005,0.054-0.005,0.106-0.005,0.157
	c0,5.962,4.245,10.936,9.879,12.07c-1.035,0.278-2.121,0.432-3.246,0.432c-0.793,0-1.563-0.08-2.315-0.223
	c1.568,4.89,6.113,8.448,11.5,8.553c-4.216,3.299-9.521,5.265-15.291,5.265c-0.992,0-1.971-0.059-2.932-0.168
	c5.445,3.49,11.916,5.529,18.865,5.529c22.644,0,35.026-18.757,35.026-35.024c0-0.535-0.01-1.065-0.033-1.594
	C56.26,16.411,58.348,14.243,60,11.771z"/>
</svg>
