<?xml version="1.0" encoding="utf-8"?>
<!-- Generator: Adobe Illustrator 16.0.3, SVG Export Plug-In . SVG Version: 6.00 Build 0)  -->
<!DOCTYPE svg PUBLIC "-//W3C//DTD SVG 1.1//EN" "http://www.w3.org/Graphics/SVG/1.1/DTD/svg11.dtd">
<svg version="1.1" id="Layer_1" xmlns="http://www.w3.org/2000/svg" xmlns:xlink="http://www.w3.org/1999/xlink" x="0px" y="0px"
	 width="128px" height="116px" viewBox="0 0 128 116" enable-background="new 0 0 128 116" xml:space="preserve">
<g>
	<path fill="#BEC3C7" d="M0,5.506l14.009,14.009c-0.224,1.238-0.382,2.498-0.382,3.802c0,7.493,3.834,14.072,9.616,17.888h-6.488
		v58.08h77.024l16.346,16.346l5.506-5.506L5.506,0L0,5.506z M20.411,25.917l12.021,12.021
		C26.325,36.911,21.491,32.074,20.411,25.917z M29.842,86.199V54.293h18.945l31.907,31.906H29.842z"/>
	<path fill="#BEC3C7" d="M34.84,8.491c8.069,0,14.642,6.656,14.642,14.827c0,3.104-0.947,5.983-2.56,8.365l4.668,4.667
		c2.764-3.608,4.435-8.114,4.435-13.032c0-11.812-9.477-21.371-21.185-21.371c-4.94,0-9.477,1.717-13.083,4.57l4.673,4.673
		C28.813,9.494,31.711,8.491,34.84,8.491z"/>
	<path fill="#BEC3C7" d="M101.825,56.918V41.205h-9.196c5.781-3.815,9.598-10.395,9.598-17.888c0-11.812-9.466-21.371-21.185-21.371
		c-11.7,0-21.211,9.559-21.211,21.371c0,7.493,3.834,14.072,9.623,17.888H56.445l13.087,13.088h19.207V73.5l13.086,13.086v-8.727
		L128,93.554V41.205L101.825,56.918z M81.042,38.154c-8.088,0-14.66-6.646-14.66-14.837c0-8.171,6.572-14.827,14.66-14.827
		c8.07,0,14.641,6.656,14.641,14.827C95.683,31.508,89.112,38.154,81.042,38.154z M121.456,81.992l-19.631-11.773V64.55
		l19.631-11.783V81.992z"/>
</g>
</svg>
