<?xml version="1.0" encoding="utf-8"?>
<!-- Generator: Adobe Illustrator 16.0.3, SVG Export Plug-In . SVG Version: 6.00 Build 0)  -->
<!DOCTYPE svg PUBLIC "-//W3C//DTD SVG 1.1//EN" "http://www.w3.org/Graphics/SVG/1.1/DTD/svg11.dtd">
<svg version="1.1" id="Layer_1" xmlns="http://www.w3.org/2000/svg" xmlns:xlink="http://www.w3.org/1999/xlink" x="0px" y="0px"
	 width="154px" height="256px" viewBox="0 0 154 256" enable-background="new 0 0 154 256" xml:space="preserve">
<g>
	<path fill="#BEC3C7" d="M31.438,245.094c-3.85,2.146-7.278,5.775-10.265,10.906H10.266c-1.715,0-3.639-1.394-5.775-4.169
		c-2.145-2.778-3.639-4.382-4.491-4.813c3.849-11.116,10.045-16.681,18.606-16.681h3.85
		C27.157,236.331,30.156,241.244,31.438,245.094z M153.984,14.757c-5.994,8.56-7.92,14.334-5.773,17.323
		c-8.561,6.417-17.543,14.115-26.947,23.098l1.924,1.284c-5.996,4.71-12.512,10.485-19.568,17.323
		c-7.059,6.847-14.227,14.979-21.492,24.382c-5.996,8.13-12.092,16.04-18.287,23.739c-6.206,7.698-12.301,15.398-18.286,23.098
		c-2.146,2.145-5.133,5.774-8.982,10.908c-1.282,0-3.429,0.86-6.415,2.565c0.853-19.249,19.889-50.466,57.104-93.675
		c4.701-4.701,10.264-10.687,16.68-17.964c6.418-7.269,13.895-15.82,22.457-25.665c-1.283-1.705-3.641-2.566-7.057-2.566
		c-0.432,0-2.246,0.751-5.455,2.246c-3.209,1.503-5.674,2.246-7.379,2.246c-2.566,0-5.131,0.432-7.699,1.284
		c-2.564,0.861-4.922,1.713-7.057,2.565c-2.566,1.284-4.922,2.566-7.059,3.85c-0.861,0-1.283-0.421-1.283-1.284h-1.281
		c-4.281,0-11.981,5.564-23.099,16.683c-6.848,2.565-10.266,5.564-10.266,8.982c0,0.432,0.421,1.073,1.282,1.925
		c-5.994,3.429-8.982,9.202-8.982,17.323c0,2.997,0.21,5.564,0.642,7.699c-4.281,0.432-7.057,1.283-8.34,2.567l1.283,1.281
		c-3.429,0.863-8.342,0.222-14.757-1.924l1.924-2.567l-4.491-2.565V56.461C48.121,18.826,89.824,0,142.438,0
		c1.283,0,3.529,2.035,6.736,6.095C152.381,10.166,153.984,13.053,153.984,14.757z"/>
</g>
</svg>
