<?xml version="1.0" encoding="utf-8"?>
<!-- Generator: Adobe Illustrator 16.0.3, SVG Export Plug-In . SVG Version: 6.00 Build 0)  -->
<!DOCTYPE svg PUBLIC "-//W3C//DTD SVG 1.1//EN" "http://www.w3.org/Graphics/SVG/1.1/DTD/svg11.dtd">
<svg version="1.1" id="Layer_1" xmlns="http://www.w3.org/2000/svg" xmlns:xlink="http://www.w3.org/1999/xlink" x="0px" y="0px"
	 width="35px" height="35px" viewBox="0 0 35 35" enable-background="new 0 0 35 35" xml:space="preserve">
<path fill-rule="evenodd" clip-rule="evenodd" fill="#BEC3C7" d="M10.001,24.997c0-0.339,0-0.652,0-0.964
	c0-1.135-0.003-2.27,0.002-3.406c0.002-0.091,0.052-0.206,0.117-0.272c3.307-3.312,6.615-6.618,9.923-9.925
	c0.435-0.436,0.87-0.871,1.305-1.306C21.393,9.078,21.44,9.036,21.479,9c1.508,1.509,3.009,3.009,4.522,4.522
	c-0.03,0.032-0.073,0.079-0.117,0.124c-3.732,3.73-7.463,7.46-11.191,11.193C14.58,24.953,14.469,25,14.307,25
	c-1.349-0.007-2.698-0.003-4.046-0.003C10.181,24.997,10.1,24.997,10.001,24.997z M11.001,23.981
	c0.072,0.004,0.118,0.011,0.165,0.011c0.916,0,1.834-0.001,2.751,0.003c0.141,0.001,0.24-0.042,0.341-0.142
	c2.318-2.323,4.641-4.644,6.962-6.965c0.045-0.045,0.086-0.092,0.111-0.119c-1.039-1.042-2.069-2.073-3.102-3.109
	c-0.001,0.003-0.017,0.012-0.03,0.025c-2.371,2.37-4.744,4.74-7.112,7.115c-0.055,0.055-0.084,0.156-0.085,0.234
	c-0.007,0.544-0.002,1.09-0.002,1.633C11.001,23.099,11.001,23.531,11.001,23.981z M20.582,11.333
	c1.029,1.03,2.056,2.062,3.061,3.069c0.301-0.3,0.613-0.611,0.897-0.892c-1.016-1.017-2.045-2.048-3.066-3.071
	C21.181,10.734,20.872,11.042,20.582,11.333z M22.893,15.182c-1.03-1.028-2.06-2.058-3.067-3.066
	c-0.269,0.268-0.55,0.55-0.811,0.813c1.014,1.018,2.042,2.049,3.061,3.07C22.346,15.728,22.627,15.448,22.893,15.182z"/>
</svg>
