<?xml version="1.0" encoding="utf-8"?>
<!-- Generator: Adobe Illustrator 16.0.3, SVG Export Plug-In . SVG Version: 6.00 Build 0)  -->
<!DOCTYPE svg PUBLIC "-//W3C//DTD SVG 1.1//EN" "http://www.w3.org/Graphics/SVG/1.1/DTD/svg11.dtd">
<svg version="1.1" id="Layer_1" xmlns="http://www.w3.org/2000/svg" xmlns:xlink="http://www.w3.org/1999/xlink" x="0px" y="0px"
	 width="180px" height="65px" viewBox="0 58.5 180 65" enable-background="new 0 58.5 180 65" xml:space="preserve">
<g>
	<linearGradient id="SVGID_1_" gradientUnits="userSpaceOnUse" x1="12.9678" y1="109.8486" x2="46.3645" y2="47.6831">
		<stop  offset="0" style="stop-color:#636466"/>
		<stop  offset="0.0368" style="stop-color:#68696B"/>
		<stop  offset="0.2712" style="stop-color:#838486"/>
		<stop  offset="0.509" style="stop-color:#97989A"/>
		<stop  offset="0.7502" style="stop-color:#A2A3A5"/>
		<stop  offset="1" style="stop-color:#A6A7A9"/>
	</linearGradient>
	<path fill="url(#SVGID_1_)" d="M31.257,123.293c0,0-34.938-11.86-30.938-60.371c0,0,15.375-4.422,30.938-4.422
		c15.565,0,30.599,4.279,31.042,4.422C66.343,111.389,31.257,123.293,31.257,123.293z"/>
	<linearGradient id="SVGID_2_" gradientUnits="userSpaceOnUse" x1="44.3496" y1="92.0264" x2="1.2168" y2="63.4889">
		<stop  offset="0" style="stop-color:#C5C6C8"/>
		<stop  offset="0.0948" style="stop-color:#DCDDDE"/>
		<stop  offset="0.2048" style="stop-color:#F0F0F0"/>
		<stop  offset="0.3167" style="stop-color:#FBFBFB"/>
		<stop  offset="0.4326" style="stop-color:#FFFFFF"/>
		<stop  offset="0.5362" style="stop-color:#F6F7F7"/>
		<stop  offset="0.7022" style="stop-color:#DFDFE0"/>
		<stop  offset="0.9089" style="stop-color:#B9BABB"/>
		<stop  offset="1" style="stop-color:#A6A7A9"/>
	</linearGradient>
	<path fill="url(#SVGID_2_)" d="M31.257,123.293c0,0-34.938-11.86-30.938-60.371c0,0,15.375-4.422,30.938-4.422
		c15.565,0,30.599,4.279,31.042,4.422l-3.187,2.865l-27.847,54.436L31.257,123.293z"/>
	<path fill="#FFFFFF" stroke="#1A171B" stroke-width="0.5145" stroke-linecap="round" d="M31.266,120.223
		c0,0-31.633-10.735-28.015-54.653c0,0,13.923-4.002,28.015-4.002c14.087,0,27.698,3.873,28.102,4.002
		C63.029,109.449,31.266,120.223,31.266,120.223z"/>
	<g>
		<path fill="#FFFFFF" enable-background="new    " d="M31.266,120.223c0,0-31.633-10.735-28.015-54.653
			c0,0,13.923-4.002,28.015-4.002c14.087,0,27.698,3.873,28.102,4.002C63.029,109.449,31.266,120.223,31.266,120.223z"/>
	</g>
	<linearGradient id="SVGID_3_" gradientUnits="userSpaceOnUse" x1="55.249" y1="100.1035" x2="9.7575" y2="69.3297">
		<stop  offset="0" style="stop-color:#4B4B4D"/>
		<stop  offset="0.2321" style="stop-color:#646466"/>
		<stop  offset="0.482" style="stop-color:#77787A"/>
		<stop  offset="0.7365" style="stop-color:#828385"/>
		<stop  offset="1" style="stop-color:#868789"/>
	</linearGradient>
	<path fill="url(#SVGID_3_)" d="M3.126,65.141l-0.297,0.084l-0.025,0.311c-1.884,22.847,5.9,36.61,12.765,44.137
		c7.446,8.165,15.47,10.955,15.549,10.983l0.148,0.047l0.141-0.047c0.08-0.028,8.139-2.83,15.613-10.998
		c6.89-7.531,14.699-21.298,12.795-44.122l-0.025-0.3l-0.286-0.093c-0.12-0.037-13.955-4.025-28.237-4.025
		C17.268,61.117,3.265,65.1,3.126,65.141z M31.656,61.758c13.066,0,25.447,3.412,27.412,3.959c0.179,2.232,0.27,4.852,0.27,6.912
		c0,18.483-6.905,30.231-12.949,36.854c-6.796,7.44-14.054,10.335-15.123,10.731c-1.071-0.396-8.499-3.281-15.265-10.718
		C9.97,102.876,3.215,91.314,3.215,72.787c0-2.045,0.29-4.65,0.466-6.866C5.71,65.365,18.875,61.758,31.656,61.758z"/>
	<linearGradient id="SVGID_4_" gradientUnits="userSpaceOnUse" x1="11.1255" y1="97.9902" x2="50.0248" y2="70.2229">
		<stop  offset="0" style="stop-color:#871626"/>
		<stop  offset="0.6067" style="stop-color:#CD1F3D"/>
		<stop  offset="0.7079" style="stop-color:#CA0233"/>
		<stop  offset="1" style="stop-color:#861D45"/>
	</linearGradient>
	<path fill="url(#SVGID_4_)" d="M31.271,114.775c0,0-26.52-9.712-23.483-46.529c0,0,11.669,0.936,23.483,0.936
		c11.811,0,23.229-0.904,23.558-0.936C57.902,105.028,31.271,114.775,31.271,114.775z"/>
	
		<radialGradient id="SVGID_5_" cx="22.3276" cy="-119.729" r="43.6818" gradientTransform="matrix(0.9466 0 0 0.9466 3.8263 191.2118)" gradientUnits="userSpaceOnUse">
		<stop  offset="0" style="stop-color:#CD1F3D"/>
		<stop  offset="0.4607" style="stop-color:#CA0233"/>
		<stop  offset="1" style="stop-color:#861D45"/>
	</radialGradient>
	<path fill="url(#SVGID_5_)" d="M31.277,111.605c0,0-22.904-8.388-20.284-40.186c0,0,10.08,0.807,20.284,0.807
		c10.199,0,20.063-0.783,20.345-0.807C54.275,103.188,31.277,111.605,31.277,111.605z"/>
	<path fill="#871626" d="M54.829,68.246c-0.328,0.031-11.747,0.936-23.558,0.936c-11.814,0-23.483-0.936-23.483-0.936l3.205,3.174
		c0,0,10.08,0.807,20.284,0.807c10.199,0,20.063-0.783,20.345-0.807L54.829,68.246z"/>
	<linearGradient id="SVGID_6_" gradientUnits="userSpaceOnUse" x1="-0.1187" y1="71.2881" x2="34.2786" y2="110.9622">
		<stop  offset="0" style="stop-color:#871626"/>
		<stop  offset="0.6067" style="stop-color:#CD1F3D"/>
		<stop  offset="0.7079" style="stop-color:#CA0233"/>
		<stop  offset="1" style="stop-color:#861D45"/>
	</linearGradient>
	<path fill="url(#SVGID_6_)" d="M31.271,114.775c0,0-26.52-9.712-23.483-46.529l3.205,3.174
		c-2.621,31.798,20.284,40.186,20.284,40.186L31.271,114.775z"/>
	<g>
		
			<image overflow="visible" opacity="0.25" width="20" height="27" xlink:href="982FD950.png"  transform="matrix(1 0 0 1 16.6802 73.6807)">
		</image>
		<g>
			<polygon fill="#FFFFFF" points="17.076,98.87 20.865,74.213 27.158,74.213 34.864,98.87 28.263,98.87 24.914,86.077 
				23.014,98.87 			"/>
		</g>
	</g>
	<g>
		
			<image overflow="visible" opacity="0.25" width="16" height="27" xlink:href="982FD957.png"  transform="matrix(1 0 0 1 31.6807 73.6807)">
		</image>
		<g>
			<polygon fill="#FFFFFF" points="35.857,74.213 42.056,74.213 45.732,98.87 39.738,98.87 37.617,86.077 35.458,96.102 
				32.18,86.077 			"/>
		</g>
	</g>
	<g>
		<path fill="#1A171B" d="M85.271,86.126l-4.902-0.012l-4.678-11.882h-0.053l-1.706,11.882h-5.271L72.12,63.99h5.221L85.271,86.126z
			 M81.86,74.783l3.997-10.793h5.273l3.082,22.124h-5.298l-1.487-11.882h-0.056l-3.063,7.121L81.86,74.783z"/>
		<path fill="#1A171B" d="M114.363,82.271l-1.336,3.843h-5.348l7.454-22.124h5.501l7.301,22.124h-5.373l-1.257-3.843H114.363z
			 M117.885,70.828h-0.05l-2.083,7.041h4.189L117.885,70.828z"/>
		<path fill="#1A171B" d="M154.798,79.484h-10.359c0,2.171,1.056,3.346,3.085,3.346c1.052,0,1.812-0.384,2.35-1.382h4.732
			c-0.381,1.764-1.351,3.052-2.622,3.904c-1.271,0.851-2.837,1.263-4.436,1.263c-4.594,0-8.028-2.82-8.028-8.014
			c0-5.017,3.162-8.039,7.677-8.039c4.815,0,7.602,3.229,7.602,8.361V79.484z M150.228,76.403c-0.243-1.437-1.461-2.38-2.788-2.38
			c-1.433,0-2.622,0.826-2.918,2.38H150.228z"/>
		<path fill="#1A171B" d="M171.767,79.484h-10.355c0,2.171,1.054,3.346,3.082,3.346c1.054,0,1.813-0.384,2.353-1.382h4.73
			c-0.38,1.764-1.35,3.052-2.619,3.904c-1.271,0.851-2.841,1.263-4.438,1.263c-4.597,0-8.03-2.82-8.03-8.014
			c0-5.017,3.163-8.039,7.679-8.039c4.811,0,7.599,3.229,7.599,8.361V79.484z M167.197,76.403c-0.244-1.437-1.462-2.38-2.786-2.38
			c-1.433,0-2.623,0.826-2.919,2.38H167.197z"/>
		<path fill="#1A171B" d="M172.446,68.117c0-2.103,1.668-3.768,3.777-3.768S180,66.015,180,68.117c0,2.1-1.667,3.768-3.776,3.768
			S172.446,70.217,172.446,68.117z M173.059,68.117c0,1.773,1.438,3.154,3.165,3.154c1.726,0,3.163-1.381,3.163-3.154
			c0-1.783-1.438-3.156-3.163-3.156C174.497,64.961,173.059,66.334,173.059,68.117z M177.949,70.266h-0.7l-1.084-1.957h-0.786v1.957
			h-0.612v-4.238h1.784c0.768,0,1.456,0.229,1.456,1.121c0,0.834-0.564,1.141-1.131,1.16L177.949,70.266z M175.379,66.641v1.055
			h0.653c0.574,0,1.359,0.095,1.359-0.48c0-0.535-0.448-0.574-0.957-0.574H175.379z"/>
	</g>
	<g>
		<path fill="#1A171B" d="M129.838,74.697h-2.868v-3.625h2.95v-1.734c0-4.457,1.975-6.01,5.868-6.01
			c1.054,0,1.866,0.172,2.487,0.285l-0.3,3.572c-0.403-0.146-0.809-0.232-1.538-0.232c-1.247,0-1.731,0.92-1.731,2.385v1.734h3.46
			v3.625h-3.46V86.06h-4.868V74.697z"/>
	</g>
	<g>
		<path fill="#1A171B" d="M79.746,96.655c-1.568-0.597-2.426-0.864-4.026-0.864c-1.719,0-3.749,0.595-3.749,2.77
			c0,3.995,9.22,3.069,9.22,9.923c0,4.44-3.536,6.196-7.835,6.196c-1.506,0-2.981-0.413-4.395-0.861l0.306-2.77
			c1.048,0.416,2.891,1.012,4.458,1.012c1.749,0,4.207-0.953,4.207-3.396c0-4.649-9.217-3.369-9.217-9.832
			c0-3.697,3.01-5.663,6.883-5.663c1.415,0,3.103,0.237,4.581,0.744L79.746,96.655z"/>
		<path fill="#1A171B" d="M85.522,93.523h12.015v2.625h-8.941v6.077h8.143v2.624h-8.143v6.853h8.941v2.623H85.522V93.523z"/>
		<path fill="#1A171B" d="M116.035,96.954c-1.351-0.775-2.856-1.163-4.426-1.163c-4.948,0-8.235,3.455-8.235,8.134
			c0,4.887,3.627,8.136,8.085,8.136c1.535,0,3.593-0.388,4.67-1.012l0.186,2.889c-1.63,0.656-3.628,0.742-4.89,0.742
			c-6.791,0-11.309-4.228-11.309-10.843c0-6.407,4.798-10.668,11.343-10.668c1.655,0,3.284,0.237,4.82,0.894L116.035,96.954z"/>
		<path fill="#1A171B" d="M135.454,105.714c0,5.842-3.042,8.966-8.326,8.966c-5.285,0-8.327-3.124-8.327-8.966v-12.19h3.074v11.801
			c0,3.996,1.289,6.736,5.253,6.736c3.963,0,5.256-2.74,5.256-6.736V93.523h3.07V105.714z"/>
		<path fill="#1A171B" d="M140.346,93.523h5.253c4.242,0,8.326,0.656,8.326,5.637c0,2.531-1.933,4.316-4.423,4.731v0.064
			c0.951,0.355,1.414,0.803,2.089,2.084l4.057,8.285h-3.504l-3.287-7.211c-0.951-2.026-1.968-2.026-3.594-2.026h-1.846v9.237h-3.071
			V93.523z M143.417,102.462h2.612c2.919,0,4.641-1.247,4.641-3.246c0-1.877-1.476-3.067-4.301-3.067h-2.952V102.462z"/>
		<path fill="#1A171B" d="M159.11,93.523h12.016v2.625h-8.939v6.077h8.14v2.624h-8.14v6.853h8.939v2.623H159.11V93.523z"/>
	</g>
	<path fill="#1A171B" d="M106.453,75.793c-0.892-0.576-1.784-0.834-2.948-0.834c-2.108,0-3.732,1.551-3.732,4.142
		c0,2.389,1.893,3.941,4.003,3.941c1.107,0,2.217-0.259,3.028-0.718l0.106,3.854c-1.214,0.431-2.673,0.662-3.974,0.662
		c-4.651,0-8.191-2.876-8.191-7.825c0-4.979,3.54-7.854,8.191-7.854c1.46,0,2.76,0.258,3.867,0.836L106.453,75.793z"/>
</g>
</svg>
