<?xml version="1.0" encoding="utf-8"?>
<!-- Generator: Adobe Illustrator 16.0.3, SVG Export Plug-In . SVG Version: 6.00 Build 0)  -->
<!DOCTYPE svg PUBLIC "-//W3C//DTD SVG 1.1//EN" "http://www.w3.org/Graphics/SVG/1.1/DTD/svg11.dtd">
<svg version="1.1" id="Layer_1" xmlns="http://www.w3.org/2000/svg" xmlns:xlink="http://www.w3.org/1999/xlink" x="0px" y="0px"
	 width="40px" height="40px" viewBox="0 0 40 40" enable-background="new 0 0 40 40" xml:space="preserve">
<g>
	<g>
		<text transform="matrix(1 0 0 1 17.25 -49.5)" fill="#BEC3C7" font-family="'FiraSans-Medium'" font-size="21">intros</text>
	</g>
	<g>
		<g>
			<g>
				<g>
					<path fill="#BEC3C7" d="M-2.75-65.5v18h-26v-18 M1.25-69.5h-34v26h34V-69.5z"/>
				</g>
			</g>
		</g>
		<g>
			<rect x="-26.75" y="-61.5" fill="#BEC3C7" width="6" height="6"/>
		</g>
		<g>
			<rect x="-18.75" y="-61.5" fill="#BEC3C7" width="14" height="2"/>
		</g>
		<g>
			<rect x="-18.75" y="-57.5" fill="#BEC3C7" width="14" height="2"/>
		</g>
		<g>
			<rect x="-18.75" y="-53.5" fill="#BEC3C7" width="14" height="2"/>
		</g>
	</g>
</g>
<g>
	<g>
		<g>
			<path fill="#BEC3C7" d="M11.324,18.72"/>
		</g>
	</g>
	<g>
		<g>
			<path fill="#BEC3C7" d="M31.881,6.988L36,14.043v3.216L20,33.165L4,17.259v-3.216L8.047,7h4.055l4.798,4.789l2.813,2.806
				l2.813-2.804L27.322,7H32 M33.631,3h-7.955l-5.964,5.965L13.748,3H5.794L0,12.941v5.965l20,19.883l20-19.883v-5.965L33.715,3
				H33.631z"/>
		</g>
	</g>
	<g>
		<g>
			<polygon fill="#BEC3C7" points="11.118,19.672 6.573,15.126 8.882,10.508 10.66,11.397 8.992,14.734 12.524,18.266 			"/>
		</g>
	</g>
</g>
</svg>
