<?xml version="1.0" encoding="utf-8"?>
<!-- Generator: Adobe Illustrator 16.0.3, SVG Export Plug-In . SVG Version: 6.00 Build 0)  -->
<!DOCTYPE svg PUBLIC "-//W3C//DTD SVG 1.1//EN" "http://www.w3.org/Graphics/SVG/1.1/DTD/svg11.dtd">
<svg version="1.1" id="Layer_1" xmlns="http://www.w3.org/2000/svg" xmlns:xlink="http://www.w3.org/1999/xlink" x="0px" y="0px"
	 width="40px" height="40px" viewBox="0 0 40 40" enable-background="new 0 0 40 40" xml:space="preserve">
<path fill="#BEC3C7" d="M0,6v26.25h40V6H0z M33.31,10.018l-13.24,8.827L6.821,10.018H33.31z M4.009,28.216V10.688L20.07,21.389
	l15.913-10.603v17.429L4.009,28.216L4.009,28.216z"/>
<g>
	<g>
		<text transform="matrix(1 0 0 1 17.25 -49.5)" fill="#BEC3C7" font-family="'FiraSans-Medium'" font-size="21">intros</text>
	</g>
	<g>
		<g>
			<g>
				<g>
					<path fill="#BEC3C7" d="M-2.75-65.5v18h-26v-18 M1.25-69.5h-34v26h34V-69.5z"/>
				</g>
			</g>
		</g>
		<g>
			<rect x="-26.75" y="-61.5" fill="#BEC3C7" width="6" height="6"/>
		</g>
		<g>
			<rect x="-18.75" y="-61.5" fill="#BEC3C7" width="14" height="2"/>
		</g>
		<g>
			<rect x="-18.75" y="-57.5" fill="#BEC3C7" width="14" height="2"/>
		</g>
		<g>
			<rect x="-18.75" y="-53.5" fill="#BEC3C7" width="14" height="2"/>
		</g>
	</g>
</g>
</svg>
