<?xml version="1.0" encoding="utf-8"?>
<!-- Generator: Adobe Illustrator 16.0.3, SVG Export Plug-In . SVG Version: 6.00 Build 0)  -->
<!DOCTYPE svg PUBLIC "-//W3C//DTD SVG 1.1//EN" "http://www.w3.org/Graphics/SVG/1.1/DTD/svg11.dtd">
<svg version="1.1" id="Layer_1" xmlns="http://www.w3.org/2000/svg" xmlns:xlink="http://www.w3.org/1999/xlink" x="0px" y="0px"
	 width="57px" height="60px" viewBox="0 0 57 60" enable-background="new 0 0 57 60" xml:space="preserve">
<path fill-rule="evenodd" clip-rule="evenodd" fill="#BEC3C7" d="M53.719,60c-17.344,0-34.689,0-52.033,0
	c-0.848-0.33-1.387-0.895-1.473-1.847c-0.229-2.516-0.409-5.053,0.211-7.517c1.12-4.456,3.708-7.682,8.234-9.076
	c1.19-0.366,2.432-0.561,3.629-0.907c1.792-0.519,3.613-0.985,5.333-1.69c1.609-0.659,2.132-2.088,1.711-3.781
	c-0.754,0.294-1.49,0.69-2.275,0.867c-2.985,0.674-5.966,0.563-8.917-0.247c-0.791-0.217-1.276-0.764-1.385-1.571
	c-0.108-0.811,0.262-1.404,0.923-1.887c0.864-0.631,1.698-1.309,2.513-2.004c1.129-0.964,1.748-2.236,2.012-3.675
	c0.14-0.765,0.272-1.55,0.254-2.321c-0.056-2.359-0.133-4.721-0.3-7.075c-0.259-3.67,0.378-7.115,2.39-10.237
	C16.63,3.8,19.47,1.524,23.184,0.433C23.998,0.193,24.866,0.14,25.709,0c1.328,0,2.657,0,3.985,0
	c0.112,0.03,0.223,0.083,0.336,0.087c3.092,0.108,5.629,1.533,7.86,3.501c4.092,3.607,5.738,8.215,5.359,13.623
	c-0.174,2.47-0.297,4.949-0.285,7.424c0.01,2.217,0.559,4.306,2.369,5.827c0.76,0.64,1.529,1.272,2.338,1.849
	c0.68,0.485,1.09,1.079,0.973,1.918c-0.125,0.888-0.684,1.44-1.553,1.619c-1.049,0.216-2.102,0.473-3.164,0.545
	c-2.684,0.183-5.355,0.157-7.795-1.244c-0.023-0.014-0.07,0.015-0.148,0.035c0.021,0.476,0.059,0.959,0.064,1.443
	c0.014,1.006,0.521,1.713,1.371,2.155c0.705,0.368,1.434,0.733,2.195,0.943c2.008,0.555,4.033,1.05,6.064,1.522
	c4.971,1.155,7.938,4.37,9.25,9.159c0.686,2.509,0.492,5.11,0.268,7.687C55.113,59.061,54.602,59.667,53.719,60z M13.342,32.691
	c1.868,0.069,3.672-0.212,5.123-1.619c0.475-0.461,0.904-0.97,1.34-1.469c0.64-0.734,1.387-0.976,2.188-0.687
	c0.806,0.291,1.266,0.958,1.252,1.915c-0.027,1.913-0.083,3.825-0.125,5.738c-0.057,2.589-1.288,4.444-3.557,5.626
	c-0.672,0.351-1.36,0.711-2.083,0.916c-2.099,0.594-4.218,1.115-6.332,1.658c-1.341,0.344-2.704,0.629-3.813,1.547
	c-1.792,1.485-3.052,3.307-3.345,5.651c-0.175,1.399-0.174,2.821-0.252,4.234c16.042,0,31.925,0,47.966,0
	c-0.123-1.63-0.041-3.246-0.4-4.759c-0.75-3.16-2.59-5.479-5.871-6.359c-1.582-0.424-3.189-0.746-4.777-1.146
	c-2.027-0.512-4.031-1.096-5.768-2.332c-1.479-1.052-2.416-2.448-2.512-4.29c-0.111-2.144-0.164-4.29-0.212-6.436
	c-0.022-1.017,0.431-1.672,1.255-1.967c0.82-0.292,1.539-0.04,2.223,0.744c0.463,0.528,0.924,1.063,1.436,1.539
	c1.43,1.327,3.191,1.544,5.158,1.5c-2.646-2.736-3.135-6.054-3.066-9.52c0.043-2.048,0.166-4.096,0.328-6.139
	c0.229-2.891-0.236-5.615-1.852-8.058c-1.684-2.545-3.908-4.432-6.976-5.021c-1.231-0.237-2.526-0.145-3.793-0.2
	c-2.927-0.126-5.321,1.085-7.351,3.059c-2.879,2.798-3.936,6.27-3.621,10.23c0.166,2.081,0.272,4.169,0.327,6.256
	c0.061,2.299-0.151,4.58-1.192,6.676C14.57,30.925,13.919,31.781,13.342,32.691z"/>
</svg>
