<?xml version="1.0" encoding="utf-8"?>
<!-- Generator: Adobe Illustrator 16.0.3, SVG Export Plug-In . SVG Version: 6.00 Build 0)  -->
<!DOCTYPE svg PUBLIC "-//W3C//DTD SVG 1.1//EN" "http://www.w3.org/Graphics/SVG/1.1/DTD/svg11.dtd">
<svg version="1.1" id="Layer_1" xmlns="http://www.w3.org/2000/svg" xmlns:xlink="http://www.w3.org/1999/xlink" x="0px" y="0px"
	 width="40px" height="40px" viewBox="0 0 40 40" enable-background="new 0 0 40 40" xml:space="preserve">
<g>
	<g>
		<text transform="matrix(1 0 0 1 17.25 -49.5)" fill="#BEC3C7" font-family="'FiraSans-Medium'" font-size="21">intros</text>
	</g>
	<g>
		<g>
			<g>
				<g>
					<path fill="#BEC3C7" d="M-2.75-65.5v18h-26v-18 M1.25-69.5h-34v26h34V-69.5z"/>
				</g>
			</g>
		</g>
		<g>
			<rect x="-26.75" y="-61.5" fill="#BEC3C7" width="6" height="6"/>
		</g>
		<g>
			<rect x="-18.75" y="-61.5" fill="#BEC3C7" width="14" height="2"/>
		</g>
		<g>
			<rect x="-18.75" y="-57.5" fill="#BEC3C7" width="14" height="2"/>
		</g>
		<g>
			<rect x="-18.75" y="-53.5" fill="#BEC3C7" width="14" height="2"/>
		</g>
	</g>
</g>
<g id="Icons_with_numbers_2_">
	<g id="Group_3_" transform="translate(-672.000000, -48.000000)">
		<path id="Shape_2_" fill="#48647C" d="M672,61.5c0-2.5,2.5-5,5-5h2.5v5V64h25v-2.5v-5h2.5c2.5,0,5,2.5,5,5V74c0,2.5-2.5,5-5,5
			h-2.5v-5v-2.5h-25V74v5H677c-2.5,0-5-2.5-5-5V61.5L672,61.5z M682,79v-5h20v5v7.5h-20V79L682,79z M702,56.5v5h-20v-5V49h20V56.5
			L702,56.5z M684.5,76.5V79h15v-2.5H684.5L684.5,76.5z M684.5,81.5V84h15v-2.5H684.5L684.5,81.5z"/>
	</g>
</g>
</svg>
