<?xml version="1.0" encoding="utf-8"?>
<!-- Generator: Adobe Illustrator 16.0.2, SVG Export Plug-In . SVG Version: 6.00 Build 0)  -->
<!DOCTYPE svg PUBLIC "-//W3C//DTD SVG 1.1//EN" "http://www.w3.org/Graphics/SVG/1.1/DTD/svg11.dtd">
<svg version="1.1" id="Layer_1" xmlns="http://www.w3.org/2000/svg" xmlns:xlink="http://www.w3.org/1999/xlink" x="0px" y="0px"
	 width="40px" height="40px" viewBox="0 0 40 40" enable-background="new 0 0 40 40" xml:space="preserve">
<g>
	<path fill="#48647C" d="M26.45,19.79l-3.248,3.268c5.13,0.609,9.861,2.974,9.861,4.086v2.203H16.976l-3.797,3.829h23.714v-6.032
		C36.893,23.346,31.503,20.885,26.45,19.79z"/>
	<path fill="#48647C" d="M38.067,3.88l-0.194-0.193l-2.075-2.075l-6.966,7.03C28.624,4.379,25.115,1,20.804,1
		c-4.439,0-8.043,3.604-8.043,8.043c0,4.328,3.427,7.868,7.722,8.029l-2.171,2.188c-5.631,0.628-13.595,3.266-13.595,7.884v5.839
		L1,36.731L3.284,39L38.067,3.88z M16.589,9.043c0-2.333,1.881-4.214,4.214-4.214s4.216,1.882,4.216,4.214
		c0,2.334-1.883,4.215-4.216,4.215S16.589,11.377,16.589,9.043z M8.544,27.144c0-0.725,2.028-1.996,4.859-2.93l-4.859,4.908V27.144z
		"/>
</g>
</svg>
