<?xml version="1.0" encoding="utf-8"?>
<!-- Generator: Adobe Illustrator 16.0.3, SVG Export Plug-In . SVG Version: 6.00 Build 0)  -->
<!DOCTYPE svg PUBLIC "-//W3C//DTD SVG 1.1//EN" "http://www.w3.org/Graphics/SVG/1.1/DTD/svg11.dtd">
<svg version="1.1" id="Layer_1" xmlns="http://www.w3.org/2000/svg" xmlns:xlink="http://www.w3.org/1999/xlink" x="0px" y="0px"
	 width="60px" height="60px" viewBox="0 0 60 60" enable-background="new 0 0 60 60" xml:space="preserve">
<path fill-rule="evenodd" clip-rule="evenodd" d="M48.127,46.292c-0.093,0-0.182,0-0.271,0c-2.943-0.482-4.946-2.557-6.655-4.48
	c-0.967-1.089-2.445-3.543-4.211-3.258c-2.505,0.4-1.261,4.683-2.309,6.518c-0.845,1.479-4.446,1.213-6.926,0.95
	c-7.833-0.833-11.837-5.014-15.347-9.507c-3.749-4.802-6.669-9.827-9.371-15.347C2.163,19.383,1.001,17.404,1,15.193
	c1.269-1.036,3.342-0.679,5.432-0.679c1.774,0,4.542-0.391,5.84,0.27c0.771,0.393,1.549,2.477,2.172,3.805
	c1.431,3.049,2.746,5.243,4.482,7.737c0.75,1.085,1.907,3.128,3.26,2.854c1.313-0.265,1.436-3.497,1.492-5.568
	c0.067-2.351-0.002-5.272-0.678-6.52c-0.637-1.176-1.805-1.199-2.988-1.899c0.985-1.978,3.679-2.174,6.927-2.174
	c2.731,0,6.54-0.303,7.606,1.496c1.082,1.828,0.341,5.129,0.272,7.604c-0.079,2.779-0.558,5.647,1.356,6.924
	c1.478-0.159,2.269-1.591,3.125-2.717c1.873-2.451,3.032-4.579,4.481-7.737c0.595-1.299,1.232-3.534,2.309-3.939
	c1.639-0.62,4.254-0.135,6.654-0.135c1.966,0,5.479-0.543,6.11,0.814c0.524,1.126-1.018,3.972-1.491,4.752
	c-1.819,2.983-3.606,4.882-5.569,7.47c-0.785,1.034-2.406,2.692-2.308,4.347c0.07,1.257,1.334,2.22,2.308,3.123
	c2.11,1.958,3.587,3.387,5.295,5.568c0.645,0.822,2.035,2.605,1.902,3.667C58.578,47.572,50.761,45.495,48.127,46.292z"/>
</svg>
