<?xml version="1.0" encoding="utf-8"?>
<!-- Generator: Adobe Illustrator 16.0.3, SVG Export Plug-In . SVG Version: 6.00 Build 0)  -->
<!DOCTYPE svg PUBLIC "-//W3C//DTD SVG 1.1//EN" "http://www.w3.org/Graphics/SVG/1.1/DTD/svg11.dtd">
<svg version="1.1" id="Layer_1" xmlns="http://www.w3.org/2000/svg" xmlns:xlink="http://www.w3.org/1999/xlink" x="0px" y="0px"
	 width="40px" height="40px" viewBox="0 0 40 40" enable-background="new 0 0 40 40" xml:space="preserve">
<g>
	<g>
		<text transform="matrix(1 0 0 1 17.25 -49.5)" fill="#BEC3C7" font-family="'FiraSans-Medium'" font-size="21">intros</text>
	</g>
	<g>
		<g>
			<g>
				<g>
					<path fill="#BEC3C7" d="M-2.75-65.5v18h-26v-18 M1.25-69.5h-34v26h34V-69.5z"/>
				</g>
			</g>
		</g>
		<g>
			<rect x="-26.75" y="-61.5" fill="#BEC3C7" width="6" height="6"/>
		</g>
		<g>
			<rect x="-18.75" y="-61.5" fill="#BEC3C7" width="14" height="2"/>
		</g>
		<g>
			<rect x="-18.75" y="-57.5" fill="#BEC3C7" width="14" height="2"/>
		</g>
		<g>
			<rect x="-18.75" y="-53.5" fill="#BEC3C7" width="14" height="2"/>
		</g>
	</g>
</g>
<g>
	<path fill="#BEC3C7" d="M38,5.712h-3.814h-5.715V0H11.328v5.712H5.612H1.805v3.812h3.808V40h28.573V9.523H38V5.712z M13.232,1.905
		h13.334v3.807H13.232V1.905z M30.376,36.188H9.424V9.523h20.952V36.188z"/>
	<rect x="13.232" y="13.333" fill="#BEC3C7" width="1.908" height="19.048"/>
	<rect x="18.947" y="13.333" fill="#BEC3C7" width="1.904" height="19.048"/>
	<rect x="24.662" y="13.333" fill="#BEC3C7" width="1.904" height="19.048"/>
</g>
</svg>
