<?xml version="1.0" encoding="utf-8"?>
<!-- Generator: Adobe Illustrator 16.0.3, SVG Export Plug-In . SVG Version: 6.00 Build 0)  -->
<!DOCTYPE svg PUBLIC "-//W3C//DTD SVG 1.1//EN" "http://www.w3.org/Graphics/SVG/1.1/DTD/svg11.dtd">
<svg version="1.1" id="Layer_1" xmlns="http://www.w3.org/2000/svg" xmlns:xlink="http://www.w3.org/1999/xlink" x="0px" y="0px"
	 width="40px" height="40px" viewBox="0 0 40 40" enable-background="new 0 0 40 40" xml:space="preserve">
<g>
	<g>
		<text transform="matrix(1 0 0 1 17.25 -49.5)" fill="#BEC3C7" font-family="'FiraSans-Medium'" font-size="21">intros</text>
	</g>
	<g>
		<g>
			<g>
				<g>
					<path fill="#BEC3C7" d="M-2.75-65.5v18h-26v-18 M1.25-69.5h-34v26h34V-69.5z"/>
				</g>
			</g>
		</g>
		<g>
			<rect x="-26.75" y="-61.5" fill="#BEC3C7" width="6" height="6"/>
		</g>
		<g>
			<rect x="-18.75" y="-61.5" fill="#BEC3C7" width="14" height="2"/>
		</g>
		<g>
			<rect x="-18.75" y="-57.5" fill="#BEC3C7" width="14" height="2"/>
		</g>
		<g>
			<rect x="-18.75" y="-53.5" fill="#BEC3C7" width="14" height="2"/>
		</g>
	</g>
</g>
<g>
	<g>
		<g>
			<g>
				<path fill="#BEC3C7" d="M35.294,9.706v21.177H4.706V9.706 M40,5H0v30.588h40V5z"/>
			</g>
		</g>
	</g>
	<g>
		<rect x="7.059" y="14.412" fill="#BEC3C7" width="7.059" height="7.059"/>
	</g>
	<g>
		<rect x="16.471" y="14.412" fill="#BEC3C7" width="16.471" height="2.353"/>
	</g>
	<g>
		<rect x="16.471" y="19.117" fill="#BEC3C7" width="16.471" height="2.354"/>
	</g>
	<g>
		<rect x="16.471" y="23.823" fill="#BEC3C7" width="16.471" height="2.354"/>
	</g>
</g>
</svg>
