<?xml version="1.0" encoding="utf-8"?>
<!-- Generator: Adobe Illustrator 16.0.3, SVG Export Plug-In . SVG Version: 6.00 Build 0)  -->
<!DOCTYPE svg PUBLIC "-//W3C//DTD SVG 1.1//EN" "http://www.w3.org/Graphics/SVG/1.1/DTD/svg11.dtd">
<svg version="1.1" id="Layer_1" xmlns="http://www.w3.org/2000/svg" xmlns:xlink="http://www.w3.org/1999/xlink" x="0px" y="0px"
	 width="40px" height="40px" viewBox="0 0 40 40" enable-background="new 0 0 40 40" xml:space="preserve">
<path fill="#BEC3C7" d="M36.364,5H3.636C1.637,5,0,6.637,0,8.637v21.818c0,1.999,1.637,3.636,3.636,3.636h9.092v3.637h14.545v-3.637
	h9.091c1.998,0,3.618-1.637,3.618-3.636L40,8.637C40,6.637,38.362,5,36.364,5z M36.364,30.455H3.636V8.637h32.728V30.455z
	 M32.728,14.091h-20v3.637h20V14.091z M32.728,21.364h-20V25h20V21.364z M10.909,14.091H7.273v3.637h3.636V14.091z M10.909,21.364
	H7.273V25h3.636V21.364z"/>
</svg>
