<?xml version="1.0" encoding="utf-8"?>
<!-- Generator: Adobe Illustrator 16.0.3, SVG Export Plug-In . SVG Version: 6.00 Build 0)  -->
<!DOCTYPE svg PUBLIC "-//W3C//DTD SVG 1.1//EN" "http://www.w3.org/Graphics/SVG/1.1/DTD/svg11.dtd">
<svg version="1.1" id="Layer_1" xmlns="http://www.w3.org/2000/svg" xmlns:xlink="http://www.w3.org/1999/xlink" x="0px" y="0px"
	 width="60px" height="60px" viewBox="0 0 60 60" enable-background="new 0 0 60 60" xml:space="preserve">
<g>
	<path fill="#2E3E51" d="M31.99,27.162v-0.091c-0.018,0.028-0.036,0.06-0.057,0.091H31.99z"/>
	<path fill="#2E3E51" d="M54.375,1H5.26C2.906,1,1,2.86,1,5.154v49.69C1,57.14,2.906,59,5.26,59h49.115
		c2.354,0,4.258-1.863,4.258-4.155V5.154C58.633,2.86,56.725,1,54.375,1z M18.471,49.553H9.763V23.364h8.708V49.553z M14.118,19.788
		h-0.06c-2.92,0-4.809-2.014-4.809-4.526c0-2.571,1.948-4.525,4.925-4.525c2.979,0,4.809,1.954,4.868,4.525
		C19.043,17.774,17.154,19.788,14.118,19.788z M49.859,49.553h-8.705V35.539c0-3.521-1.26-5.922-4.408-5.922
		c-2.406,0-3.838,1.62-4.467,3.187c-0.232,0.556-0.285,1.337-0.285,2.121v14.628h-8.706c0,0,0.113-23.735,0-26.191h8.706v3.708
		c1.154-1.784,3.223-4.325,7.844-4.325c5.727,0,10.021,3.744,10.021,11.787V49.553L49.859,49.553z"/>
</g>
</svg>
