<?xml version="1.0" encoding="utf-8"?>
<!-- Generator: Adobe Illustrator 16.0.3, SVG Export Plug-In . SVG Version: 6.00 Build 0)  -->
<!DOCTYPE svg PUBLIC "-//W3C//DTD SVG 1.1//EN" "http://www.w3.org/Graphics/SVG/1.1/DTD/svg11.dtd">
<svg version="1.1" id="Layer_1" xmlns="http://www.w3.org/2000/svg" xmlns:xlink="http://www.w3.org/1999/xlink" x="0px" y="0px"
	 width="128px" height="128px" viewBox="0.5 122.5 128 128" enable-background="new 0.5 122.5 128 128" xml:space="preserve">
<path fill-rule="evenodd" clip-rule="evenodd" fill="#3598DB" d="M123.353,154.46c-9.16,0.089-18.321,0.035-27.585-0.156
	c0.357-0.192,0.715-0.389,1.071-0.576c3.5-1.816,6.732-3.991,9.326-7.009c5.317-6.179,5.192-14.732-0.285-20.268
	c-1.969-1.987-4.354-3.161-7.076-3.696c-0.277-0.054-0.536-0.17-0.804-0.255c-1.415,0-2.835,0-4.25,0
	c-1.804,0.469-3.665,0.781-5.401,1.433c-9.965,3.746-17.425,10.519-23.099,19.402c-0.219,0.344-0.429,0.696-0.732,1.188
	c-0.781-1.188-1.455-2.313-2.219-3.371c-5.743-8.004-12.929-14.183-22.361-17.45c-1.521-0.527-3.123-0.809-4.688-1.201
	c-1.335,0-2.665,0-4,0c-0.844,0.21-1.696,0.38-2.529,0.63c-8.353,2.473-12.335,12.549-8.064,20.41
	c2.288,4.215,5.911,7.022,9.967,9.357c0.848,0.491,1.721,0.933,2.54,1.603c-0.436,0-0.868,0-1.304,0
	c-8.739,0-17.478,0.058-26.216-0.04c-2.46-0.027-4.179,0.759-5.143,3.04c0,8.665,0,17.335,0,26c0.973,2.276,2.701,3.228,5.149,3.014
	c0.9-0.081,1.813-0.014,2.851-0.014c0,0.759,0.063,39.924,0,58.857c-0.009,2.45,0.728,4.169,3,5.143c35.335,0,70.665,0,106,0
	c2.268-0.974,3.045-2.688,3.036-5.143c-0.063-18.894,0-57.991,0-58.857c0.982,0,1.888-0.067,2.816,0.014
	c2.451,0.219,4.174-0.741,5.147-3.014c0-8.665,0-17.335,0-26C127.536,155.21,125.804,154.433,123.353,154.46z M70.401,150.639
	c4.567-8.938,11.281-15.59,20.746-19.215c1.482-0.571,3.156-0.848,4.75-0.884c4.549-0.107,7.639,4.634,5.563,8.715
	c-0.857,1.678-2.246,3.231-3.724,4.428c-4.388,3.572-9.625,5.451-15.103,6.491c-3.62,0.684-7.339,0.849-11.018,1.232
	c-0.438,0.045-0.884-0.045-1.429-0.071C70.286,151.014,70.313,150.813,70.401,150.639z M48.438,242.401c-10.576,0-21.167,0-31.851,0
	c0-18.563,0-37.151,0-55.848c10.658,0,21.221,0,31.851,0C48.438,205.179,48.438,223.736,48.438,242.401z M48.439,178.406
	c-13.259,0-26.516,0-39.857,0c0-5.245,0-10.509,0-15.849c13.341,0,26.569,0,39.857,0C48.439,167.853,48.439,173.085,48.439,178.406z
	 M32.401,144.54c-1.479-1.035-2.797-2.361-3.988-3.728c-1.387-1.585-1.833-3.531-1.29-5.616c0.941-3.611,3.634-5.228,7.538-4.598
	c3.263,0.526,6.212,1.83,8.978,3.58c6.285,3.978,11.261,9.183,14.656,15.844c0.188,0.366,0.344,0.741,0.513,1.111
	c-0.058,0.152-0.12,0.299-0.178,0.451c-3.135-0.277-6.293-0.397-9.397-0.866C43.217,149.817,37.453,148.063,32.401,144.54z
	 M72.438,242.429c-5.295,0-10.554,0-15.877,0c0-26.688,0-53.321,0-80.04c5.297,0,10.556,0,15.877,0
	C72.438,189.089,72.438,215.724,72.438,242.429z M112.415,242.438c-10.656,0-21.219,0-31.853,0c0-18.625,0-37.183,0-55.839
	c10.585,0,21.179,0,31.853,0C112.415,205.165,112.415,223.755,112.415,242.438z M120.401,178.415c-13.24,0-26.49,0-39.839,0
	c0-5.326,0-10.554,0-15.848c13.286,0,26.509,0,39.839,0C120.401,167.808,120.401,173.067,120.401,178.415z"/>
</svg>
