<?xml version="1.0" encoding="utf-8"?>
<!-- Generator: Adobe Illustrator 16.0.3, SVG Export Plug-In . SVG Version: 6.00 Build 0)  -->
<!DOCTYPE svg PUBLIC "-//W3C//DTD SVG 1.1//EN" "http://www.w3.org/Graphics/SVG/1.1/DTD/svg11.dtd">
<svg version="1.1" id="Layer_1" xmlns="http://www.w3.org/2000/svg" xmlns:xlink="http://www.w3.org/1999/xlink" x="0px" y="0px"
	 width="128px" height="128px" viewBox="0.5 122.5 128 128" enable-background="new 0.5 122.5 128 128" xml:space="preserve">
<g>
	<rect x="33.73" y="152.038" fill="#BEC3C7" width="16" height="16"/>
	<rect x="33.73" y="176.654" fill="#BEC3C7" width="16" height="16"/>
	<rect x="33.73" y="201.27" fill="#BEC3C7" width="16" height="16"/>
	<rect x="64.5" y="201.27" fill="#BEC3C7" width="32" height="16"/>
	<path fill="#BEC3C7" d="M120.5,122.5H8.5c-4.418,0-8,3.577-8,8v112c0,4.423,3.582,8,8,8h112c4.418,0,8-3.577,8-8v-112
		C128.5,126.077,124.918,122.5,120.5,122.5z M113.73,235.73H15.269V137.27h98.461V235.73z"/>
	<rect x="64.5" y="176.654" fill="#BEC3C7" width="32" height="16"/>
	<rect x="64.5" y="152.038" fill="#BEC3C7" width="32" height="16"/>
</g>
</svg>
