<?xml version="1.0" encoding="utf-8"?>
<!-- Generator: Adobe Illustrator 16.0.3, SVG Export Plug-In . SVG Version: 6.00 Build 0)  -->
<!DOCTYPE svg PUBLIC "-//W3C//DTD SVG 1.1//EN" "http://www.w3.org/Graphics/SVG/1.1/DTD/svg11.dtd">
<svg version="1.1" id="Layer_1" xmlns="http://www.w3.org/2000/svg" xmlns:xlink="http://www.w3.org/1999/xlink" x="0px" y="0px"
	 width="60px" height="60px" viewBox="0 0 60 60" enable-background="new 0 0 60 60" xml:space="preserve">
<path d="M40.573,15L52,11.493V3.33L40.844,1.001L31.498,15h-3.619L18.844,1.001L8,3.33v8.163L18.805,15H2v14h3v31h50V29h3V15H40.573
	z M11,9.371V5.452l6.786-1.74l6.007,8.869L11,9.371z M28,54H11V29h17V54z M28,27H5v-9h23V27z M41.9,3.711l7.1,1.74v3.919
	l-12.953,3.209L41.9,3.711z M49,54H32V29h17V54z M55,27H32v-9h23V27z"/>
</svg>
