<?xml version="1.0" encoding="utf-8"?>
<!-- Generator: Adobe Illustrator 16.0.0, SVG Export Plug-In . SVG Version: 6.00 Build 0)  -->
<!DOCTYPE svg PUBLIC "-//W3C//DTD SVG 1.1//EN" "http://www.w3.org/Graphics/SVG/1.1/DTD/svg11.dtd">
<svg version="1.1" id="Layer_1" xmlns="http://www.w3.org/2000/svg" xmlns:xlink="http://www.w3.org/1999/xlink" x="0px" y="0px"
	 width="80px" height="80px" viewBox="0 0 80 80" enable-background="new 0 0 80 80" xml:space="preserve">
<path d="M40,11c-16.575,0-30,13.425-30,30c0,16.575,13.425,30,30,30c16.575,0,30-13.425,30-30C70,24.425,56.575,11,40,11z M16,41
	c0-13.26,10.74-24,24-24c5.55,0,10.633,1.906,14.7,5.055L21.053,55.7C17.904,51.636,16,46.551,16,41z M40,64.999
	c-5.553,0-10.636-1.905-14.7-5.053l33.642-33.645c3.151,4.065,5.057,9.149,5.057,14.699C63.999,54.258,53.258,64.999,40,64.999z"/>
</svg>
