<?xml version="1.0" encoding="utf-8"?>
<!-- Generator: Adobe Illustrator 16.0.0, SVG Export Plug-In . SVG Version: 6.00 Build 0)  -->
<!DOCTYPE svg PUBLIC "-//W3C//DTD SVG 1.1//EN" "http://www.w3.org/Graphics/SVG/1.1/DTD/svg11.dtd">
<svg version="1.1" id="Layer_1" xmlns="http://www.w3.org/2000/svg" xmlns:xlink="http://www.w3.org/1999/xlink" x="0px" y="0px"
	 width="80px" height="80px" viewBox="0 0 80 80" enable-background="new 0 0 80 80" xml:space="preserve">
<path d="M39.545,22.325l4.859,9.835l1.26,2.576l2.846,0.412l10.859,1.578l-7.859,7.656l-2.057,2.004l0.486,2.824l1.855,10.818
	l-9.709-5.108l-2.541-1.335l-2.539,1.335l-9.709,5.107l1.855-10.818l0.484-2.824l-2.055-2.005l-7.858-7.655l10.857-1.577
	l2.846-0.412l1.26-2.576L39.545,22.325 M39.545,10l-9.749,19.752L8,32.919L23.774,48.29L20.054,70l19.492-10.25L59.039,70
	l-3.721-21.71l15.773-15.371l-21.799-3.167L39.545,10L39.545,10z"/>
</svg>
