<?xml version="1.0" encoding="utf-8"?>
<!-- Generator: Adobe Illustrator 16.0.3, SVG Export Plug-In . SVG Version: 6.00 Build 0)  -->
<!DOCTYPE svg PUBLIC "-//W3C//DTD SVG 1.1//EN" "http://www.w3.org/Graphics/SVG/1.1/DTD/svg11.dtd">
<svg version="1.1" id="Layer_1" xmlns="http://www.w3.org/2000/svg" xmlns:xlink="http://www.w3.org/1999/xlink" x="0px" y="0px"
	 width="128px" height="128px" viewBox="0 -21 128 128" enable-background="new 0 -21 128 128" xml:space="preserve">
<g>
	<path d="M64.146,11.999c0.924,0,1.827,0.006,2.203,0.019c32.086,1.043,44.42,22.424,47.953,30.533
		c-3.113,7.869-14.438,28.547-47.73,29.474h-5.145C26.57,70.992,16.205,50.332,13.533,42.563
		c3.006-7.677,14.514-29.631,48.052-30.545C61.99,12.005,63.08,11.999,64.146,11.999 M64.146,0c-1.208,0-2.443,0.012-2.89,0.023
		C11.213,1.383,1,42.274,1,42.274S9.086,82.57,61.258,84.023h5.479C117.562,82.699,127,42.274,127,42.274S115.311,1.6,66.736,0.023
		C66.283,0.012,65.23,0,64.146,0L64.146,0z"/>
	<path d="M64.75,24.879c9.457,0,17.146,7.688,17.146,17.144c0,9.458-7.689,17.146-17.146,17.146
		c-9.457,0-17.144-7.688-17.144-17.146C47.606,32.566,55.292,24.879,64.75,24.879 M64.75,18.024c-13.26,0-24,10.745-24,24
		c0,13.241,10.74,23.999,24,23.999s24-10.758,24-23.999C88.75,28.77,78.01,18.024,64.75,18.024L64.75,18.024z"/>
</g>
</svg>
