<?xml version="1.0" encoding="utf-8"?>
<!-- Generator: Adobe Illustrator 16.0.3, SVG Export Plug-In . SVG Version: 6.00 Build 0)  -->
<!DOCTYPE svg PUBLIC "-//W3C//DTD SVG 1.1//EN" "http://www.w3.org/Graphics/SVG/1.1/DTD/svg11.dtd">
<svg version="1.1" id="Layer_1" xmlns="http://www.w3.org/2000/svg" xmlns:xlink="http://www.w3.org/1999/xlink" x="0px" y="0px"
	 width="128px" height="128px" viewBox="0 0 128 128" enable-background="new 0 0 128 128" xml:space="preserve">
<g>
	<path d="M64,0C28.656,0,0,28.656,0,64s28.656,64,64,64s64-28.656,64-64S99.344,0,64,0z M64,116.661
		c-29.037,0-52.662-23.624-52.662-52.661c0-29.037,23.625-52.662,52.662-52.662c29.036,0,52.661,23.625,52.661,52.662
		C116.661,93.037,93.036,116.661,64,116.661z"/>
	<circle cx="42.667" cy="48" r="10.667"/>
	<circle cx="85.333" cy="48" r="10.667"/>
	<path d="M64,90.328c-11.922,0-20.995-10.438-20.995-15.662H31.662c0,12.156,14.922,27.006,32.338,27.006
		c17.417,0,32.339-14.85,32.339-27.006H84.995C84.995,79.891,75.922,90.328,64,90.328z"/>
</g>
</svg>
