<?xml version="1.0" encoding="utf-8"?>
<!-- Generator: Adobe Illustrator 16.0.3, SVG Export Plug-In . SVG Version: 6.00 Build 0)  -->
<!DOCTYPE svg PUBLIC "-//W3C//DTD SVG 1.1//EN" "http://www.w3.org/Graphics/SVG/1.1/DTD/svg11.dtd">
<svg version="1.1" id="Layer_1" xmlns="http://www.w3.org/2000/svg" xmlns:xlink="http://www.w3.org/1999/xlink" x="0px" y="0px"
	 width="128px" height="128px" viewBox="-381.5 84 128 128" enable-background="new -381.5 84 128 128" xml:space="preserve">
<g>
	<path fill="#2E3E51" d="M-258.426,192.298l-13.126-19.686c0-9.945,0.694-24.894,0.694-30.058c0-25.44-15.382-43.123-36.821-47.652
		c0.03-0.313,0.08-0.605,0.08-0.936c0-4.783-1.826-9.967-6.613-9.967h-3.288c-4.78,0-7.451,5.184-7.451,9.967
		c0,0.33,0.066,0.62,0.092,0.936c-21.441,4.529-38.591,29.3-38.591,54.734c0,4.125,0,12.52,0,22.976l-13.125,19.686h14.024h31.329
		c-0.158,0.938-0.269,1.894-0.269,2.87c0,9.273,7.558,16.832,16.837,16.832c9.297,0,16.837-7.559,16.837-16.832
		c0-0.982-0.128-1.933-0.286-2.87H-270H-258.426z M-304.376,195.168c0,5.654-4.607,10.269-10.276,10.269
		c-5.662,0-10.27-4.614-10.27-10.269c0-1.002,0.175-1.961,0.434-2.87h19.676C-304.542,193.207-304.376,194.166-304.376,195.168z
		 M-284.676,175.899v3.274h-65.643v-29.537c0-18.933,12.524-38.581,28.175-41.893l6.202-0.61l5.538,0.61
		c16.297,3.44,25.728,17.295,25.728,35.331V175.899z"/>
	<polygon fill="#2E3E51" points="-319.404,118.202 -330.42,128.838 -330.624,128.899 -330.624,136.513 -324.062,136.513 
		-324.062,131.53 -315.019,122.831 	"/>
</g>
</svg>
