<?xml version="1.0" encoding="utf-8"?>
<!-- Generator: Adobe Illustrator 16.0.3, SVG Export Plug-In . SVG Version: 6.00 Build 0)  -->
<!DOCTYPE svg PUBLIC "-//W3C//DTD SVG 1.1//EN" "http://www.w3.org/Graphics/SVG/1.1/DTD/svg11.dtd">
<svg version="1.1" id="Layer_1" xmlns="http://www.w3.org/2000/svg" xmlns:xlink="http://www.w3.org/1999/xlink" x="0px" y="0px"
	 width="60px" height="60px" viewBox="0 0 60 60" enable-background="new 0 0 60 60" xml:space="preserve">
<path d="M60,8.432l-1.694-2.036l-6.912,5.072L48.521,6H37.926l-7.945,7.946L22.035,6H11.441l-2.837,5.408L1.694,6L0,8.206
	l6.977,6.094L3,20.6v7.946l13.045,12.796L5.882,49.9l1.756,2.035l10.505-8.713l11.823,11.807l11.864-11.854l10.468,8.703
	l1.696-2.035l-10.511-8.551L56,28.545V20.6l-3.461-6.156L60,8.432z M14.441,12h5.4L29.98,22.139L40.119,12h5.576l1.658,3.18
	L30.034,29.748L12.725,15.105L14.441,12z M8,26.352v-4.283l2.95-4.256l16.815,13.822l-7.877,6.307L8,26.352z M29.98,47.539
	l-7.718-7.717l7.771-6.465l7.714,6.416L29.98,47.539z M50,22.069v4.283L39.043,37.893l-7.229-6.258l16.159-13.807L50,22.069z"/>
</svg>
