<?xml version="1.0" encoding="utf-8"?>
<!-- Generator: Adobe Illustrator 16.0.3, SVG Export Plug-In . SVG Version: 6.00 Build 0)  -->
<!DOCTYPE svg PUBLIC "-//W3C//DTD SVG 1.1//EN" "http://www.w3.org/Graphics/SVG/1.1/DTD/svg11.dtd">
<svg version="1.1" id="Layer_1" xmlns="http://www.w3.org/2000/svg" xmlns:xlink="http://www.w3.org/1999/xlink" x="0px" y="0px"
	 width="68px" height="52px" viewBox="0 0 68 52" enable-background="new 0 0 68 52" xml:space="preserve">
<g>
	<path d="M0,52h68V0H0V52z M8,8h52v36H8V8z"/>
	<polygon points="52,36 44,36 44,40 56,40 56,28 52,28 	"/>
	<polygon points="16,36 16,28 12,28 12,40 24,40 24,36 	"/>
	<polygon points="15.999,16 23.999,16 23.999,12 12,12 12,24 15.999,24 	"/>
	<polygon points="52,16 52,24 56,24 56,12 44,12 44,16 	"/>
</g>
</svg>
