<?xml version="1.0" encoding="utf-8"?>
<!-- Generator: Adobe Illustrator 16.0.0, SVG Export Plug-In . SVG Version: 6.00 Build 0)  -->
<!DOCTYPE svg PUBLIC "-//W3C//DTD SVG 1.1//EN" "http://www.w3.org/Graphics/SVG/1.1/DTD/svg11.dtd">
<svg version="1.1" id="Layer_1" xmlns="http://www.w3.org/2000/svg" xmlns:xlink="http://www.w3.org/1999/xlink" x="0px" y="0px"
	 width="107px" height="80px" viewBox="0 0 107 80" enable-background="new 0 0 107 80" xml:space="preserve">
<g>
	<path d="M98.07,18.752H86.893L78.5,27.136l-8.389-8.384h-8.199L56.668,10H43.33l-10.004,9.999L23.333,10H9.995L0,26.666v9.999
		L33.327,70l23.427-23.426L78.5,69.068l27.953-27.955v-8.385L98.07,18.752z M33.327,60.569L6.662,33.906v-5.39l7.115-11.845h6.797
		l8.05,8.042l4.703,4.714l4.717-4.714l8.045-8.042h7.025L60,28.516v5.39L33.327,60.569z M103.125,39.733l-24.58,24.579
		l-19.439-20.09l7.557-7.558v-9.999L63.91,22.08h4.83l7.406,7.41l2.354,2.359l2.363-2.359l7.408-7.41h7.91l6.943,11.571V39.733z"/>
</g>
</svg>
