<?xml version="1.0" encoding="utf-8"?>
<!-- Generator: Adobe Illustrator 16.0.3, SVG Export Plug-In . SVG Version: 6.00 Build 0)  -->
<!DOCTYPE svg PUBLIC "-//W3C//DTD SVG 1.1//EN" "http://www.w3.org/Graphics/SVG/1.1/DTD/svg11.dtd">
<svg version="1.1" id="Layer_1" xmlns="http://www.w3.org/2000/svg" xmlns:xlink="http://www.w3.org/1999/xlink" x="0px" y="0px"
	 width="80px" height="80px" viewBox="0 0 80 80" enable-background="new 0 0 80 80" xml:space="preserve">
<g>
	<g>
		<path fill="#96D03F" d="M50.08,17.738L58,27.871v5.187L33.5,58.711L9,33.058v-5.187L13.247,19h6.545l7.739,6.481l4.531,3.9
			l4.54-3.584L44.34,19H49 M54.51,10H41.68l-9.618,9.618L22.448,10H9.618L0,26.096v9.618l32.228,32.063L67,35.714v-9.618L54.676,10
			H54.51z"/>
		<g>
			<polygon fill="#96D03F" points="18.203,36.949 10.877,29.618 14.596,22.172 17.465,23.607 14.774,28.984 20.473,34.683 			"/>
		</g>
	</g>
	<g>
		<rect x="63.446" y="40.191" fill="#96D03F" width="5.521" height="27.586"/>
		<rect x="52.413" y="51.224" fill="#96D03F" width="27.587" height="5.52"/>
	</g>
</g>
</svg>
