<?xml version="1.0" encoding="utf-8"?>
<!-- Generator: Adobe Illustrator 16.0.3, SVG Export Plug-In . SVG Version: 6.00 Build 0)  -->
<!DOCTYPE svg PUBLIC "-//W3C//DTD SVG 1.1//EN" "http://www.w3.org/Graphics/SVG/1.1/DTD/svg11.dtd">
<svg version="1.1" id="Layer_1" xmlns="http://www.w3.org/2000/svg" xmlns:xlink="http://www.w3.org/1999/xlink" x="0px" y="0px"
	 width="60px" height="60px" viewBox="0 0 60 60" enable-background="new 0 0 60 60" xml:space="preserve">
<path d="M30,1C13.984,1,1,13.984,1,30c0,16.017,12.984,29,29,29c16.017,0,29-12.983,29-29C59,13.984,46.017,1,30,1z M43.864,12.247
	l-14.67,14.669L15.251,12.973C19.211,9.539,24.36,7.444,30,7.444C35.229,7.444,40.035,9.25,43.864,12.247z M7.444,30
	c0-5.64,2.095-10.789,5.529-14.749l13.943,13.943l-14.669,14.67C9.25,40.035,7.444,35.229,7.444,30z M14.409,46.259l14.786-14.786
	l15.555,15.554C40.79,50.46,35.64,52.556,30,52.556C23.951,52.556,18.462,50.147,14.409,46.259z M47.026,44.749L31.473,29.194
	l14.786-14.786c3.889,4.053,6.297,9.542,6.297,15.591C52.556,35.64,50.46,40.79,47.026,44.749z"/>
</svg>
