<?xml version="1.0" encoding="utf-8"?>
<!-- Generator: Adobe Illustrator 16.0.3, SVG Export Plug-In . SVG Version: 6.00 Build 0)  -->
<!DOCTYPE svg PUBLIC "-//W3C//DTD SVG 1.1//EN" "http://www.w3.org/Graphics/SVG/1.1/DTD/svg11.dtd">
<svg version="1.1" id="Layer_1" xmlns="http://www.w3.org/2000/svg" xmlns:xlink="http://www.w3.org/1999/xlink" x="0px" y="0px"
	 width="128px" height="128px" viewBox="0 -12 128 128" enable-background="new 0 -12 128 128" xml:space="preserve">
<path d="M12.693,13.07v78h102.002v-78H12.693z M102.695,79.072H24.694V25.071h78.001V79.072z"/>
<polygon points="103,1 103,7 121,7 121,25 127,25 127,1 "/>
<polygon points="7,7 25,7 25,1 1,1 1,25 7,25 "/>
<polygon points="7,79 1,79 1,103 25,103 25,97 7,97 "/>
<polygon points="121,97 103,97 103,103 127,103 127,79 121,79 "/>
</svg>
