<?xml version="1.0" encoding="utf-8"?>
<!-- Generator: Adobe Illustrator 16.0.3, SVG Export Plug-In . SVG Version: 6.00 Build 0)  -->
<!DOCTYPE svg PUBLIC "-//W3C//DTD SVG 1.1//EN" "http://www.w3.org/Graphics/SVG/1.1/DTD/svg11.dtd">
<svg version="1.1" id="Layer_1" xmlns="http://www.w3.org/2000/svg" xmlns:xlink="http://www.w3.org/1999/xlink" x="0px" y="0px"
	 width="80px" height="80px" viewBox="0 0 80 80" enable-background="new 0 0 80 80" xml:space="preserve">
<g>
	<path fill="#D03F4A" d="M0,40.001c0,22.093,17.906,40,40,39.999c22.09,0,40-17.906,40-39.999C80,17.91,62.09,0.002,40,0
		C17.906,0.002,0,17.91,0,40.001z M40,8.002c6.621,0,12.781,2.023,17.891,5.48L16.117,61.223C11.086,55.568,8,48.15,8,40.001
		C8,22.357,22.355,8.002,40,8.002z M40,72c-6.621,0-12.781-2.023-17.891-5.48l41.773-47.741c5.031,5.656,8.115,13.074,8.115,21.222
		C71.998,57.645,57.645,72,40,72z"/>
</g>
</svg>
