<?xml version="1.0" encoding="utf-8"?>
<!-- Generator: Adobe Illustrator 16.0.3, SVG Export Plug-In . SVG Version: 6.00 Build 0)  -->
<!DOCTYPE svg PUBLIC "-//W3C//DTD SVG 1.1//EN" "http://www.w3.org/Graphics/SVG/1.1/DTD/svg11.dtd">
<svg version="1.1" id="Layer_1" xmlns="http://www.w3.org/2000/svg" xmlns:xlink="http://www.w3.org/1999/xlink" x="0px" y="0px"
	 width="80px" height="80px" viewBox="0 0 80 80" enable-background="new 0 0 80 80" xml:space="preserve">
<polygon points="23.668,37.001 19.002,41.668 34,56.668 62.5,28.167 57.831,23.5 34,47.336 23.668,37.001 "/>
<path d="M40,8c17.645,0,32,14.355,32,32c0,17.645-14.355,32-32,32C22.355,72,8,57.645,8,40C8,22.355,22.355,8,40,8 M40,1
	C18.461,1,1,18.461,1,40c0,21.539,17.461,39,39,39c21.539,0,39-17.461,39-39C79,18.461,61.539,1,40,1L40,1z"/>
</svg>
