<?xml version="1.0" encoding="utf-8"?>
<!-- Generator: Adobe Illustrator 16.0.3, SVG Export Plug-In . SVG Version: 6.00 Build 0)  -->
<!DOCTYPE svg PUBLIC "-//W3C//DTD SVG 1.1//EN" "http://www.w3.org/Graphics/SVG/1.1/DTD/svg11.dtd">
<svg version="1.1" id="Layer_1" xmlns="http://www.w3.org/2000/svg" xmlns:xlink="http://www.w3.org/1999/xlink" x="0px" y="0px"
	 width="128px" height="116px" viewBox="0 0 128 116" enable-background="new 0 0 128 116" xml:space="preserve">
<path d="M63.987,23.829l9.394,19.015l2.435,4.98l5.503,0.797l20.994,3.05L87.119,66.473l-3.978,3.877l0.94,5.457l3.586,20.916
	l-18.767-9.877l-4.914-2.58l-4.908,2.58l-18.77,9.873l3.586-20.914l0.937-5.461l-3.974-3.873L25.667,51.67l20.99-3.049l5.5-0.797
	l2.437-4.98L63.987,23.829 M63.987,0L45.141,38.187L3,44.309l30.497,29.717L26.304,116l37.683-19.818L101.674,116l-7.19-41.975
	l30.491-29.717l-42.142-6.122L63.987,0L63.987,0z"/>
</svg>
