<?xml version="1.0" encoding="utf-8"?>
<!-- Generator: Adobe Illustrator 16.0.3, SVG Export Plug-In . SVG Version: 6.00 Build 0)  -->
<!DOCTYPE svg PUBLIC "-//W3C//DTD SVG 1.1//EN" "http://www.w3.org/Graphics/SVG/1.1/DTD/svg11.dtd">
<svg version="1.1" id="Layer_1" xmlns="http://www.w3.org/2000/svg" xmlns:xlink="http://www.w3.org/1999/xlink" x="0px" y="0px"
	 width="128px" height="128px" viewBox="-335.5 132 128 128" enable-background="new -335.5 132 128 128" xml:space="preserve">
<g>
	<path d="M-287.5,144.804v72.822c-4.693-5.363-11.507-8.823-19.2-8.823c-14.143,0-25.599,11.461-25.599,25.599
		c0,14.126,11.456,25.599,25.599,25.599c14.144,0,25.601-11.473,25.601-25.599v-76.803l64.131-11.197l-0.13,52.026
		c-4.694-5.364-11.506-8.828-19.201-8.828c-14.145,0-25.602,11.464-25.602,25.599c0,14.125,11.458,25.604,25.602,25.604
		c14.144,0,25.599-11.479,25.599-25.604V132L-287.5,144.804z M-306.702,252.687c-10.085,0-18.287-8.199-18.287-18.285
		c0-10.088,8.202-18.289,18.287-18.289c10.089,0,18.289,8.201,18.289,18.289C-288.413,244.487-296.612,252.687-306.702,252.687z
		 M-236.3,233.487c-10.087,0-18.289-8.198-18.289-18.289c0-10.086,8.202-18.283,18.289-18.283c10.085,0,18.287,8.197,18.287,18.283
		C-218.013,225.289-226.214,233.487-236.3,233.487z"/>
</g>
</svg>
