<?xml version="1.0" encoding="utf-8"?>
<!-- Generator: Adobe Illustrator 16.0.0, SVG Export Plug-In . SVG Version: 6.00 Build 0)  -->
<!DOCTYPE svg PUBLIC "-//W3C//DTD SVG 1.1//EN" "http://www.w3.org/Graphics/SVG/1.1/DTD/svg11.dtd">
<svg version="1.1" id="Layer_1" xmlns="http://www.w3.org/2000/svg" xmlns:xlink="http://www.w3.org/1999/xlink" x="0px" y="0px"
	 width="60px" height="49.41px" viewBox="0 0 60 49.41" enable-background="new 0 0 60 49.41" xml:space="preserve">
<g>
	<path fill="#6E6F72" d="M37.156,7.059l5.568,2.783l1.489,0.746h1.668h7.058v31.764H7.06V10.588h7.059h1.668l1.488-0.746
		l5.569-2.783H37.156 M38.823,0H21.176l-7.058,3.531H0V49.41h60V3.531H45.882L38.823,0L38.823,0z"/>
	<path fill="#6E6F72" d="M30.001,17.643c4.864,0,8.822,3.958,8.822,8.826c0,4.87-3.958,8.827-8.822,8.827
		c-4.867,0-8.825-3.957-8.825-8.827C21.176,21.601,25.134,17.643,30.001,17.643 M30.001,14.115c-6.825,0-12.354,5.534-12.354,12.354
		c0,6.818,5.528,12.352,12.354,12.352c6.823,0,12.353-5.533,12.353-12.352C42.354,19.649,36.824,14.115,30.001,14.115L30.001,14.115
		z"/>
	<g>
		<rect x="10.588" y="14.115" fill="#6E6F72" width="3.53" height="3.528"/>
	</g>
</g>
</svg>
